<svg width="44" height="54" viewBox="0 0 44 54" fill="none" xmlns="http://www.w3.org/2000/svg">
<path fill-rule="evenodd" clip-rule="evenodd" d="M18 7C8.05888 7 0 15.0589 0 25V29C0 38.9411 8.05888 47 18 47H26C27.8161 47 29.5694 46.731 31.2223 46.2308C31 49.5066 30.6202 52.3798 30 53C33.8333 50.5 42 42.6 44 31L43.8833 31.0607C43.9604 30.3844 44 29.6968 44 29V25C44 15.0589 35.9411 7 26 7H18Z" fill="#0E29FF"/>
<path d="M25.2646 38H20.8408V20.9785H20.7236L15.875 24.0547V20.1289L21.1191 16.7891H25.2646V38Z" fill="white"/>
</svg>
