<svg width="44" height="54" viewBox="0 0 44 54" fill="none" xmlns="http://www.w3.org/2000/svg">
<path fill-rule="evenodd" clip-rule="evenodd" d="M18 7C8.05888 7 0 15.0589 0 25V29C0 38.9411 8.05888 47 18 47H26C27.8161 47 29.5694 46.731 31.2223 46.2308C31 49.5066 30.6202 52.3798 30 53C33.8333 50.5 42 42.6 44 31L43.8833 31.0607C43.9604 30.3844 44 29.6968 44 29V25C44 15.0589 35.9411 7 26 7H18Z" fill="#0E29FF"/>
<path d="M13.9854 34.8213L21.6172 27.8047C22.3691 27.082 22.9551 26.4863 23.375 26.0176C23.7949 25.5391 24.1123 25.0605 24.3271 24.582C24.5518 24.0938 24.6641 23.5762 24.6641 23.0293C24.6641 22.4238 24.5176 21.8916 24.2246 21.4326C23.9316 20.9639 23.5312 20.6074 23.0234 20.3633C22.5156 20.1191 21.9395 19.9971 21.2949 19.9971C20.6406 19.9971 20.0596 20.1289 19.5518 20.3926C19.0537 20.6562 18.668 21.042 18.3945 21.5498C18.1309 22.0479 17.999 22.6289 17.999 23.293H13.8096C13.8096 21.9355 14.1221 20.7441 14.7471 19.7188C15.3818 18.6836 16.2656 17.8877 17.3984 17.3311C18.541 16.7744 19.8545 16.4961 21.3389 16.4961C22.833 16.4961 24.1514 16.7598 25.2939 17.2871C26.4365 17.8145 27.3203 18.5518 27.9453 19.499C28.5801 20.4463 28.8975 21.5303 28.8975 22.751C28.8975 23.5811 28.7363 24.3818 28.4141 25.1533C28.1016 25.9248 27.5449 26.7793 26.7441 27.7168C25.9531 28.6543 24.8252 29.7871 23.3604 31.1152L20.123 34.2354V34.3818H29.2051V38H14L13.9854 34.8213Z" fill="white"/>
</svg>
