<svg width="485" height="85" viewBox="0 0 485 85" fill="none" xmlns="http://www.w3.org/2000/svg">
<path d="M179.243 67.8643L171.841 40.623H171.57L171.353 67.8643H161.242L163.789 25.8418H175.114L183.795 55.0043H184.066L192.801 25.8418H204.126L206.672 67.8643H196.561L196.344 40.623H196.074L188.672 67.8643H179.276H179.243Z" fill="#131368"/>
<path d="M247.876 67.8643H237.158L234.232 60.2238H221.747L219.038 67.8643H208.374L223.568 25.8418H232.249L247.887 67.8643H247.876ZM228.098 38.1354L224.392 51.1619H231.577L228.098 38.1354Z" fill="#131368"/>
<path d="M277.105 51.5506L284.008 67.8643H273.29L267.492 53.7605H260.751V67.8643H250.965V25.8418H266.603C272.206 25.8418 276.487 27.0412 279.456 29.4399C282.426 31.8387 283.9 35.359 283.9 40.0011C283.9 42.4886 283.293 44.7541 282.079 46.7975C280.865 48.8409 279.207 50.4178 277.105 51.5506ZM260.751 44.8097H268.153C270.255 44.8097 271.805 44.321 272.824 43.3327C273.832 42.3554 274.341 41.1671 274.341 39.7679C274.341 38.2575 273.821 37.0693 272.77 36.203C271.718 35.3368 270.223 34.9037 268.261 34.9037H260.751V44.8097Z" fill="#131368"/>
<path d="M297.609 59.3687V67.8643H287.942V25.8418H297.609V44.5876L310.701 25.8418H321.419L309.151 43.6769L321.863 67.8532H311.362L302.8 52.1725L297.609 59.3687Z" fill="#131368"/>
<path d="M356.24 34.7927H334.63V42.4331L355.188 42.3776V51.1508H334.63V58.9134H347.721C348.719 58.9134 349.607 58.9134 350.398 58.8801C351.189 58.8579 351.937 58.8134 352.642 58.7357C353.303 58.7024 353.953 58.6469 354.571 58.5691C355.199 58.4914 355.839 58.4026 356.511 58.2915V67.0647C355.297 67.409 353.704 67.62 351.731 67.7199C349.759 67.8087 348.003 67.8643 346.454 67.8643H324.952V25.8418H356.229V34.7927H356.24Z" fill="#131368"/>
<path d="M359.609 25.8418H390.832V35.1258H380.005V67.8532H370.165V35.1258H359.609V25.8418Z" fill="#131368"/>
<path d="M394.484 25.8418H404.325V67.8643H394.484V25.8418Z" fill="#131368"/>
<path d="M419.627 41.7557V67.8643H409.906V25.8418H419.465L433.889 51.0953V25.8418H443.611V67.8643H434.55L419.627 41.7557Z" fill="#131368"/>
<path d="M471.57 58.1798C472.275 57.6911 472.838 56.8916 473.283 55.8032C473.727 54.7038 473.944 53.5933 473.944 52.4605H465.49V43.7984H484.228V47.9296C484.152 49.2178 484.077 50.4394 484.011 51.6054C483.936 52.7715 483.806 53.9042 483.621 55.0037C483.47 56.1031 483.22 57.1581 482.874 58.1798C482.527 59.2015 482.039 60.2231 481.411 61.2337C480.088 63.5325 478.484 65.2538 476.599 66.3866C474.724 67.5193 472.817 68.2745 470.909 68.6521C469.836 68.8742 468.677 69.0074 467.43 69.0519C466.173 69.0852 464.927 69.0296 463.67 68.8853C462.38 68.6965 461.145 68.4189 459.963 68.0635C458.782 67.7081 457.731 67.2417 456.81 66.6753C453.786 64.7541 451.532 62.1666 450.036 58.9127C448.541 55.67 447.793 51.661 447.793 46.9079C447.793 42.1548 448.627 38.2569 450.275 34.9919C451.933 31.7269 454.274 29.1283 457.297 27.2071C458.186 26.6407 459.194 26.1743 460.332 25.8189C461.47 25.4635 462.651 25.2081 463.865 25.0526C465.079 24.9083 466.292 24.8416 467.517 24.8528C468.731 24.875 469.88 24.9971 470.942 25.2192C472.708 25.5968 474.464 26.3298 476.219 27.4292C477.964 28.5286 479.807 30.1278 481.714 32.2378L475.743 38.5789C473.9 36.5355 472.025 35.214 470.107 34.6143C468.189 34.0146 466.292 34.0257 464.418 34.6698C462.098 35.4583 460.343 36.902 459.172 38.9787C457.991 41.0554 457.406 43.6985 457.406 46.9079C457.406 50.1173 458.013 52.9381 459.226 55.148C460.44 57.358 462.044 58.7461 464.038 59.3125C465.144 59.6568 466.401 59.7456 467.82 59.5901C469.24 59.4347 470.486 58.9682 471.549 58.1687L471.57 58.1798Z" fill="#131368"/>
<path d="M33.368 8.70703V61.1907C33.368 68.5757 30.1276 72.4182 24.3405 72.4182C18.8676 72.4182 15.3129 68.8867 15.2154 62.9564H-0.000299158C-0.0978356 77.8153 10.3494 84.9894 23.636 84.9894C38.0389 84.9894 47.9009 76.3161 48.432 62.3679L33.4547 8.70703H33.368Z" fill="url(#paint0_linear_1480_702)"/>
<path d="M138.242 32.0166L128.423 10.4834L127.643 8.77319L123.655 0L95.369 20.2339L108.721 23.8986L108.937 23.9652L100.148 61.4012H99.5306L86.0489 8.70656H71.7435L58.251 61.3013H57.6441L45.2678 8.70656H44.455H43.6639H33.4551L49.6353 83.9561H64.5367L78.6361 34.271H79.2538L93.2449 83.9561H108.157L123.752 28.0409L138.242 32.0166Z" fill="url(#paint1_linear_1480_702)"/>
<defs>
<linearGradient id="paint0_linear_1480_702" x1="-0.000299158" y1="46.8538" x2="48.432" y2="46.8538" gradientUnits="userSpaceOnUse">
<stop stop-color="#0E29FF"/>
<stop offset="1" stop-color="#0ECEFF"/>
</linearGradient>
<linearGradient id="paint1_linear_1480_702" x1="33.4551" y1="41.978" x2="138.242" y2="41.978" gradientUnits="userSpaceOnUse">
<stop stop-color="#0E29FF"/>
<stop offset="1" stop-color="#0ECEFF"/>
</linearGradient>
</defs>
</svg>
