<?xml version="1.0" encoding="utf-8"?>
<!-- Generator: Adobe Illustrator 28.0.0, SVG Export Plug-In . SVG Version: 6.00 Build 0)  -->
<svg version="1.1" id="레이어_1" xmlns="http://www.w3.org/2000/svg" xmlns:xlink="http://www.w3.org/1999/xlink" x="0px"
	 y="0px" viewBox="0 0 119.11 119.11" style="enable-background:new 0 0 119.11 119.11;" xml:space="preserve">
<style type="text/css">
	.st0{fill:#FFCD00;}
	.st1{fill:#371D1E;}
	.st2{fill:#FAE100;}
	.st3{clip-path:url(#SVGID_00000061442938045972091890000000815134947371111356_);fill:#FAE100;}
	.st4{clip-path:url(#SVGID_00000150101357574568485370000004579298479323898258_);fill:#FAE100;}
	.st5{clip-path:url(#SVGID_00000147900639715413103010000007640529998037740991_);fill:#FAE100;}
	.st6{clip-path:url(#SVGID_00000109726776960718814170000007827841173551798458_);fill:#FAE100;}
	.st7{clip-path:url(#SVGID_00000067945395019906146640000006942332366639772061_);fill:#FAE100;}
	.st8{clip-path:url(#SVGID_00000127749326987158995040000011110930773827087756_);fill:#FAE100;}
	.st9{clip-path:url(#SVGID_00000127745506351340817650000016071859513795308203_);fill:#FAE100;}
	.st10{clip-path:url(#SVGID_00000042707617617305004860000007806954378970942901_);fill:#FAE100;}
	.st11{clip-path:url(#SVGID_00000152244507008106007880000013033029622442895498_);fill:#FAE100;}
	.st12{clip-path:url(#SVGID_00000137845421702538313030000013061138844626476201_);fill:#FAE100;}
	.st13{clip-path:url(#SVGID_00000183246260820483193640000002452439723609188765_);fill:#FAE100;}
	.st14{clip-path:url(#SVGID_00000167398476504950465150000015364195584433270658_);fill:#FAE100;}
	.st15{clip-path:url(#SVGID_00000011729279153198883900000010366295426626672301_);fill:#FFFFFF;}
	.st16{clip-path:url(#SVGID_00000150788398060532349820000014896607121752164542_);fill:#FFFFFF;}
	.st17{clip-path:url(#SVGID_00000068671124224730352750000008928535394223173251_);fill:#FFFFFF;}
	.st18{clip-path:url(#SVGID_00000172414689908906761080000010251808012869378741_);fill:#FFFFFF;}
	.st19{fill:#020303;}
	.st20{fill:#FDDB00;}
	.st21{fill:#010202;}
	.st22{clip-path:url(#SVGID_00000042013253543689381450000012159819932389047199_);fill:#FAE100;}
	.st23{clip-path:url(#SVGID_00000165213630443013371090000002969945033279206067_);fill:#FAE100;}
	.st24{clip-path:url(#SVGID_00000058567263205525373930000006148213847169209270_);fill:#FAE100;}
	.st25{clip-path:url(#SVGID_00000000185139675183992180000006910630327801181065_);fill:#FAE100;}
</style>
<g>
	<g>
		<path class="st0" d="M28.97,234.13h-4.2v-35.26l4.2-0.91V234.13z M40.2,208.54l3.28,2.37l-8.08,10.13l9.35,11.22l-3.24,2.51
			l-11.04-13.5L40.2,208.54z"/>
		<path class="st0" d="M48.47,227.43c0-2.52,0.84-4.45,2.53-5.77c1.69-1.32,4.14-1.99,7.37-1.99h4.84v-1.6
			c0-3.86-1.7-5.79-5.11-5.79c-1.09,0-2.24,0.15-3.44,0.46c-1.2,0.3-2.3,0.68-3.31,1.14l-1.23-2.96c1.25-0.7,2.59-1.24,4.04-1.62
			c1.44-0.38,2.85-0.57,4.22-0.57c5.9,0,8.85,3.15,8.85,9.44v15.97h-3.1l-0.5-2.74c-1.25,1-2.58,1.78-3.99,2.33
			c-1.41,0.55-2.76,0.82-4.04,0.82c-2.22,0-3.96-0.63-5.22-1.89C49.11,231.39,48.47,229.65,48.47,227.43 M56.35,231.17
			c0.58,0,1.17-0.08,1.79-0.23c0.62-0.15,1.24-0.35,1.86-0.59c0.62-0.24,1.21-0.54,1.75-0.89c0.55-0.35,1.03-0.72,1.46-1.12v-5.84
			h-4.36c-2.21,0-3.82,0.38-4.84,1.14c-1.01,0.76-1.52,1.96-1.52,3.6C52.49,229.86,53.78,231.17,56.35,231.17"/>
		<path class="st0" d="M78.89,234.13h-4.2v-35.26l4.2-0.91V234.13z M90.11,208.54l3.28,2.37l-8.07,10.13l9.35,11.22l-3.24,2.51
			l-11.04-13.5L90.11,208.54z"/>
		<path class="st0" d="M98.39,227.43c0-2.52,0.84-4.45,2.53-5.77c1.69-1.32,4.14-1.99,7.37-1.99h4.84v-1.6
			c0-3.86-1.7-5.79-5.11-5.79c-1.1,0-2.24,0.15-3.45,0.46c-1.2,0.3-2.3,0.68-3.31,1.14l-1.23-2.96c1.25-0.7,2.59-1.24,4.04-1.62
			c1.44-0.38,2.85-0.57,4.22-0.57c5.9,0,8.85,3.15,8.85,9.44v15.97h-3.1l-0.5-2.74c-1.25,1-2.58,1.78-3.99,2.33
			c-1.41,0.55-2.76,0.82-4.04,0.82c-2.22,0-3.96-0.63-5.22-1.89C99.02,231.39,98.39,229.65,98.39,227.43 M106.27,231.17
			c0.57,0,1.17-0.08,1.79-0.23c0.62-0.15,1.24-0.35,1.86-0.59c0.62-0.24,1.2-0.54,1.75-0.89c0.54-0.35,1.03-0.72,1.45-1.12v-5.84
			h-4.36c-2.21,0-3.83,0.38-4.84,1.14c-1.02,0.76-1.52,1.96-1.52,3.6C102.4,229.86,103.69,231.17,106.27,231.17"/>
		<path class="st0" d="M134.02,208.77c3.47,0,6.19,1.13,8.16,3.38c1.98,2.25,2.97,5.48,2.97,9.67c0,4.13-0.98,7.31-2.94,9.53
			c-1.96,2.22-4.69,3.33-8.19,3.33c-3.47,0-6.19-1.11-8.16-3.33c-1.98-2.22-2.97-5.4-2.97-9.53c0-4.2,1-7.42,2.99-9.67
			C127.87,209.9,130.59,208.77,134.02,208.77 M134.02,212.15c-2.19,0-3.87,0.82-5.04,2.46c-1.17,1.64-1.76,4.05-1.76,7.21
			c0,3.13,0.59,5.5,1.76,7.09c1.17,1.6,2.85,2.4,5.04,2.4c2.22,0,3.91-0.8,5.09-2.4c1.17-1.6,1.76-3.96,1.76-7.09
			c0-3.16-0.59-5.57-1.76-7.21C137.94,212.97,136.24,212.15,134.02,212.15"/>
	</g>
	<g>
		<path class="st1" d="M237.61,234.13h-4.2v-35.26l4.2-0.91V234.13z M248.83,208.54l3.28,2.37l-8.08,10.13l9.35,11.22l-3.24,2.51
			l-11.04-13.5L248.83,208.54z"/>
		<path class="st1" d="M257.11,227.43c0-2.52,0.84-4.45,2.53-5.77c1.69-1.32,4.14-1.99,7.37-1.99h4.84v-1.6
			c0-3.86-1.7-5.79-5.11-5.79c-1.09,0-2.24,0.15-3.44,0.46c-1.2,0.3-2.3,0.68-3.31,1.14l-1.23-2.96c1.25-0.7,2.59-1.24,4.04-1.62
			c1.44-0.38,2.85-0.57,4.22-0.57c5.9,0,8.85,3.15,8.85,9.44v15.97h-3.1l-0.5-2.74c-1.25,1-2.58,1.78-3.99,2.33
			s-2.76,0.82-4.04,0.82c-2.22,0-3.96-0.63-5.22-1.89C257.74,231.39,257.11,229.65,257.11,227.43 M264.98,231.17
			c0.58,0,1.17-0.08,1.79-0.23c0.62-0.15,1.24-0.35,1.86-0.59c0.62-0.24,1.21-0.54,1.75-0.89c0.55-0.35,1.03-0.72,1.46-1.12v-5.84
			h-4.36c-2.21,0-3.82,0.38-4.84,1.14c-1.01,0.76-1.52,1.96-1.52,3.6C261.12,229.86,262.41,231.17,264.98,231.17"/>
		<path class="st1" d="M287.52,234.13h-4.2v-35.26l4.2-0.91V234.13z M298.74,208.54l3.28,2.37l-8.07,10.13l9.35,11.22l-3.24,2.51
			l-11.04-13.5L298.74,208.54z"/>
		<path class="st1" d="M307.02,227.43c0-2.52,0.84-4.45,2.53-5.77c1.69-1.32,4.14-1.99,7.37-1.99h4.84v-1.6
			c0-3.86-1.7-5.79-5.11-5.79c-1.1,0-2.24,0.15-3.45,0.46c-1.2,0.3-2.3,0.68-3.31,1.14l-1.23-2.96c1.25-0.7,2.59-1.24,4.04-1.62
			c1.44-0.38,2.85-0.57,4.22-0.57c5.9,0,8.85,3.15,8.85,9.44v15.97h-3.1l-0.5-2.74c-1.25,1-2.58,1.78-3.99,2.33
			c-1.41,0.55-2.76,0.82-4.04,0.82c-2.22,0-3.96-0.63-5.22-1.89C307.65,231.39,307.02,229.65,307.02,227.43 M314.9,231.17
			c0.57,0,1.17-0.08,1.79-0.23c0.62-0.15,1.24-0.35,1.86-0.59c0.62-0.24,1.2-0.54,1.75-0.89c0.54-0.35,1.03-0.72,1.45-1.12v-5.84
			h-4.36c-2.21,0-3.83,0.38-4.84,1.14c-1.02,0.76-1.52,1.96-1.52,3.6C311.04,229.86,312.32,231.17,314.9,231.17"/>
		<path class="st1" d="M342.65,208.77c3.47,0,6.19,1.13,8.16,3.38c1.98,2.25,2.97,5.48,2.97,9.67c0,4.13-0.98,7.31-2.94,9.53
			c-1.96,2.22-4.69,3.33-8.19,3.33c-3.47,0-6.19-1.11-8.16-3.33c-1.98-2.22-2.97-5.4-2.97-9.53c0-4.2,1-7.42,2.99-9.67
			C336.5,209.9,339.22,208.77,342.65,208.77 M342.65,212.15c-2.19,0-3.87,0.82-5.04,2.46c-1.17,1.64-1.76,4.05-1.76,7.21
			c0,3.13,0.59,5.5,1.76,7.09c1.17,1.6,2.85,2.4,5.04,2.4c2.22,0,3.91-0.8,5.09-2.4c1.17-1.6,1.76-3.96,1.76-7.09
			c0-3.16-0.59-5.57-1.76-7.21C346.57,212.97,344.87,212.15,342.65,212.15"/>
	</g>
</g>
<g>
	<g>
		<g>
			<path class="st2" d="M158.58,450.81c0,18.2-14.67,32.95-32.76,32.95H44.11c-18.09,0-32.76-14.75-32.76-32.95v-82.19
				c0-18.2,14.67-32.95,32.76-32.95h81.72c18.09,0,32.76,14.75,32.76,32.95V450.81z"/>
			<path class="st1" d="M84.5,363.55c-29.25,0-52.96,18.74-52.96,41.87c0,15.05,10.04,28.24,25.12,35.62
				c-1.11,4.13-4.01,14.98-4.59,17.3c-0.72,2.88,1.05,2.84,2.22,2.07c0.91-0.61,14.51-9.86,20.38-13.85
				c3.19,0.47,6.47,0.72,9.83,0.72c29.25,0,52.96-18.74,52.96-41.86C137.46,382.29,113.75,363.55,84.5,363.55"/>
			<g>
				<g>
					<g>
						<defs>
							<path id="SVGID_1_" d="M47.56,397.71h5.45c0,0,0.03,14.97,0,18.46c0.01,2.55,5.67,2.58,5.66,0.04l0.02-18.3
								c0,0,1.83,0.01,5.42,0.01c3.39,0,3.39-5.33,0-5.33c-3.82,0-16.58-0.11-16.58-0.11C44.35,392.49,44.36,397.71,47.56,397.71"/>
						</defs>
						<clipPath id="SVGID_00000114059975738611709220000010224173937921421747_">
							<use xlink:href="#SVGID_1_"  style="overflow:visible;"/>
						</clipPath>
					</g>
					<g>
						<defs>
							<path id="SVGID_00000100379276409850337240000002841729526862701700_" d="M47.56,397.71h5.45c0,0,0.03,14.97,0,18.46
								c0.01,2.55,5.67,2.58,5.66,0.04l0.02-18.3c0,0,1.83,0.01,5.42,0.01c3.39,0,3.39-5.33,0-5.33c-3.82,0-16.58-0.11-16.58-0.11
								C44.35,392.49,44.36,397.71,47.56,397.71"/>
						</defs>
						<use xlink:href="#SVGID_00000100379276409850337240000002841729526862701700_"  style="overflow:visible;fill:#FAE100;"/>
						<clipPath id="SVGID_00000082357447191183520510000001947992036104710062_">
							<use xlink:href="#SVGID_00000100379276409850337240000002841729526862701700_"  style="overflow:visible;"/>
						</clipPath>
						
							<rect x="44.35" y="392.48" style="clip-path:url(#SVGID_00000082357447191183520510000001947992036104710062_);fill:#FAE100;" width="23.16" height="26.27"/>
					</g>
					<g>
						<defs>
							<path id="SVGID_00000093166075484124200350000008069246368770364329_" d="M47.56,397.71h5.45c0,0,0.03,14.97,0,18.46
								c0.01,2.55,5.67,2.58,5.66,0.04l0.02-18.3c0,0,1.83,0.01,5.42,0.01c3.39,0,3.39-5.33,0-5.33c-3.82,0-16.58-0.11-16.58-0.11
								C44.35,392.49,44.36,397.71,47.56,397.71"/>
						</defs>
						<clipPath id="SVGID_00000116194645374215530990000010664930267575647382_">
							<use xlink:href="#SVGID_00000093166075484124200350000008069246368770364329_"  style="overflow:visible;"/>
						</clipPath>
					</g>
				</g>
				<g>
					<g>
						<defs>
							<path id="SVGID_00000174560104339579245480000011311454164824618163_" d="M73.65,398.68l3.03,9.5h-6.32L73.65,398.68z
								 M70.25,394.23c-1.34,2.95-6.19,16.9-7.79,20.6c-1.16,2.67,3.85,4.86,5.01,2.18l1.09-3.81h9.97c0,0-0.34,0.16,0.98,3.65
								c1.07,2.83,6.25,0.87,5.18-1.96c-1.53-4.04-6.83-18.6-7.8-20.66c-0.44-0.95-2.04-1.64-3.59-1.64
								C72.03,392.59,70.78,393.06,70.25,394.23"/>
						</defs>
						<clipPath id="SVGID_00000173878691173108502130000000454091551250969493_">
							<use xlink:href="#SVGID_00000174560104339579245480000011311454164824618163_"  style="overflow:visible;"/>
						</clipPath>
					</g>
					<g>
						<defs>
							<path id="SVGID_00000060731443944089855350000015363515200456062901_" d="M73.65,398.68l3.03,9.5h-6.32L73.65,398.68z
								 M70.25,394.23c-1.34,2.95-6.19,16.9-7.79,20.6c-1.16,2.67,3.85,4.86,5.01,2.18l1.09-3.81h9.97c0,0-0.34,0.16,0.98,3.65
								c1.07,2.83,6.25,0.87,5.18-1.96c-1.53-4.04-6.83-18.6-7.8-20.66c-0.44-0.95-2.04-1.64-3.59-1.64
								C72.03,392.59,70.78,393.06,70.25,394.23"/>
						</defs>
						<use xlink:href="#SVGID_00000060731443944089855350000015363515200456062901_"  style="overflow:visible;fill:#FAE100;"/>
						<clipPath id="SVGID_00000136411589879599147150000016607927580291699887_">
							<use xlink:href="#SVGID_00000060731443944089855350000015363515200456062901_"  style="overflow:visible;"/>
						</clipPath>
						
							<rect x="61.29" y="392.59" style="clip-path:url(#SVGID_00000136411589879599147150000016607927580291699887_);fill:#FAE100;" width="24.48" height="27.1"/>
					</g>
					<g>
						<defs>
							<path id="SVGID_00000049223769310556930180000005469678223010535332_" d="M73.65,398.68l3.03,9.5h-6.32L73.65,398.68z
								 M70.25,394.23c-1.34,2.95-6.19,16.9-7.79,20.6c-1.16,2.67,3.85,4.86,5.01,2.18l1.09-3.81h9.97c0,0-0.34,0.16,0.98,3.65
								c1.07,2.83,6.25,0.87,5.18-1.96c-1.53-4.04-6.83-18.6-7.8-20.66c-0.44-0.95-2.04-1.64-3.59-1.64
								C72.03,392.59,70.78,393.06,70.25,394.23"/>
						</defs>
						<clipPath id="SVGID_00000115496006667679551550000006045470515682407858_">
							<use xlink:href="#SVGID_00000049223769310556930180000005469678223010535332_"  style="overflow:visible;"/>
						</clipPath>
					</g>
				</g>
				<g>
					<g>
						<defs>
							<path id="SVGID_00000057857473561022644860000009825536574154608804_" d="M86.6,395.1c0.01,4.74,0.03,20.02,0.03,20.02
								s-0.44,3.04,2.17,3.04c2.6,0,8.38-0.03,10.94-0.03c2.56,0,2.55-5.45-0.01-5.45c-2.56,0-7.24-0.03-7.24-0.03
								s0.02-14.13,0.01-17.57c0-1.66-1.48-2.49-2.95-2.49C88.08,392.6,86.6,393.43,86.6,395.1"/>
						</defs>
						<clipPath id="SVGID_00000109735555823324500700000010212481000586194052_">
							<use xlink:href="#SVGID_00000057857473561022644860000009825536574154608804_"  style="overflow:visible;"/>
						</clipPath>
					</g>
					<g>
						<defs>
							<path id="SVGID_00000050635505385809960730000012188850569477871287_" d="M86.6,395.1c0.01,4.74,0.03,20.02,0.03,20.02
								s-0.44,3.04,2.17,3.04c2.6,0,8.38-0.03,10.94-0.03c2.56,0,2.55-5.45-0.01-5.45c-2.56,0-7.24-0.03-7.24-0.03
								s0.02-14.13,0.01-17.57c0-1.66-1.48-2.49-2.95-2.49C88.08,392.6,86.6,393.43,86.6,395.1"/>
						</defs>
						<use xlink:href="#SVGID_00000050635505385809960730000012188850569477871287_"  style="overflow:visible;fill:#FAE100;"/>
						<clipPath id="SVGID_00000039123847278385034900000015831645282443362982_">
							<use xlink:href="#SVGID_00000050635505385809960730000012188850569477871287_"  style="overflow:visible;"/>
						</clipPath>
						
							<rect x="86.19" y="392.6" style="clip-path:url(#SVGID_00000039123847278385034900000015831645282443362982_);fill:#FAE100;" width="16.11" height="25.56"/>
					</g>
					<g>
						<defs>
							<path id="SVGID_00000060001104646061000880000006405519123996760964_" d="M86.6,395.1c0.01,4.74,0.03,20.02,0.03,20.02
								s-0.44,3.04,2.17,3.04c2.6,0,8.38-0.03,10.94-0.03c2.56,0,2.55-5.45-0.01-5.45c-2.56,0-7.24-0.03-7.24-0.03
								s0.02-14.13,0.01-17.57c0-1.66-1.48-2.49-2.95-2.49C88.08,392.6,86.6,393.43,86.6,395.1"/>
						</defs>
						<clipPath id="SVGID_00000051350111315068657410000016700844706506242695_">
							<use xlink:href="#SVGID_00000060001104646061000880000006405519123996760964_"  style="overflow:visible;"/>
						</clipPath>
					</g>
				</g>
				<g>
					<g>
						<defs>
							<path id="SVGID_00000036949960687958885790000001599170127981823878_" d="M102.98,394.35c0.06,2.08-0.07,20.88-0.07,22.27
								c0,2.2,5.6,2.19,5.6,0c0-2.55,0-7.4,0-7.4l1.64-1.32l7.19,9.8c1.45,1.92,6.02-1.55,4.57-3.46l-7.63-10.05
								c0,0,5.18-5.6,7.22-7.63c1.19-1.18-2.5-4.9-3.69-3.71c-1.15,1.14-9.27,9.27-9.27,9.27s0.07-5.1,0-7.92
								c-0.03-1.07-1.34-1.59-2.69-1.59C104.43,392.61,102.95,393.2,102.98,394.35"/>
						</defs>
						<clipPath id="SVGID_00000043422657924605859430000008091463247836604576_">
							<use xlink:href="#SVGID_00000036949960687958885790000001599170127981823878_"  style="overflow:visible;"/>
						</clipPath>
					</g>
					<g>
						<defs>
							<path id="SVGID_00000091708918371448228740000007703700157905852803_" d="M102.98,394.35c0.06,2.08-0.07,20.88-0.07,22.27
								c0,2.2,5.6,2.19,5.6,0c0-2.55,0-7.4,0-7.4l1.64-1.32l7.19,9.8c1.45,1.92,6.02-1.55,4.57-3.46l-7.63-10.05
								c0,0,5.18-5.6,7.22-7.63c1.19-1.18-2.5-4.9-3.69-3.71c-1.15,1.14-9.27,9.27-9.27,9.27s0.07-5.1,0-7.92
								c-0.03-1.07-1.34-1.59-2.69-1.59C104.43,392.61,102.95,393.2,102.98,394.35"/>
						</defs>
						<use xlink:href="#SVGID_00000091708918371448228740000007703700157905852803_"  style="overflow:visible;fill:#FAE100;"/>
						<clipPath id="SVGID_00000111896638597791813150000007447971518921576086_">
							<use xlink:href="#SVGID_00000091708918371448228740000007703700157905852803_"  style="overflow:visible;"/>
						</clipPath>
						
							<rect x="102.92" y="391.66" style="clip-path:url(#SVGID_00000111896638597791813150000007447971518921576086_);fill:#FAE100;" width="20.45" height="27.96"/>
					</g>
					<g>
						<defs>
							<path id="SVGID_00000093874123565273010180000010159702210208842656_" d="M102.98,394.35c0.06,2.08-0.07,20.88-0.07,22.27
								c0,2.2,5.6,2.19,5.6,0c0-2.55,0-7.4,0-7.4l1.64-1.32l7.19,9.8c1.45,1.92,6.02-1.55,4.57-3.46l-7.63-10.05
								c0,0,5.18-5.6,7.22-7.63c1.19-1.18-2.5-4.9-3.69-3.71c-1.15,1.14-9.27,9.27-9.27,9.27s0.07-5.1,0-7.92
								c-0.03-1.07-1.34-1.59-2.69-1.59C104.43,392.61,102.95,393.2,102.98,394.35"/>
						</defs>
						<clipPath id="SVGID_00000145055045284460963370000007740020450537358735_">
							<use xlink:href="#SVGID_00000093874123565273010180000010159702210208842656_"  style="overflow:visible;"/>
						</clipPath>
					</g>
				</g>
			</g>
		</g>
		<g>
			<rect x="219.87" y="335.99" class="st2" width="147.45" height="147.45"/>
			<path class="st1" d="M293.45,363.03c-29.25,0-52.96,18.74-52.96,41.87c0,15.05,10.04,28.24,25.12,35.62
				c-1.11,4.13-4.01,14.98-4.59,17.3c-0.72,2.88,1.05,2.84,2.22,2.07c0.91-0.61,14.51-9.86,20.38-13.85
				c3.19,0.47,6.47,0.72,9.83,0.72c29.25,0,52.96-18.74,52.96-41.87C346.41,381.77,322.7,363.03,293.45,363.03"/>
			<g>
				<g>
					<g>
						<defs>
							<path id="SVGID_00000183933858123217591530000011356751932475497659_" d="M256.51,397.19h5.45c0,0,0.03,14.97,0,18.46
								c0.01,2.55,5.67,2.58,5.66,0.04l0.02-18.3c0,0,1.83,0.01,5.42,0.01c3.39,0,3.39-5.33,0-5.33c-3.82,0-16.58-0.1-16.58-0.1
								C253.3,391.97,253.31,397.19,256.51,397.19"/>
						</defs>
						<clipPath id="SVGID_00000098923962165515886890000015554827410884753290_">
							<use xlink:href="#SVGID_00000183933858123217591530000011356751932475497659_"  style="overflow:visible;"/>
						</clipPath>
					</g>
					<g>
						<defs>
							<path id="SVGID_00000050657374630733287420000002741244350074768806_" d="M256.51,397.19h5.45c0,0,0.03,14.97,0,18.46
								c0.01,2.55,5.67,2.58,5.66,0.04l0.02-18.3c0,0,1.83,0.01,5.42,0.01c3.39,0,3.39-5.33,0-5.33c-3.82,0-16.58-0.1-16.58-0.1
								C253.3,391.97,253.31,397.19,256.51,397.19"/>
						</defs>
						<use xlink:href="#SVGID_00000050657374630733287420000002741244350074768806_"  style="overflow:visible;fill:#FAE100;"/>
						<clipPath id="SVGID_00000090263225186715182750000006947324325593089152_">
							<use xlink:href="#SVGID_00000050657374630733287420000002741244350074768806_"  style="overflow:visible;"/>
						</clipPath>
						
							<rect x="253.3" y="391.96" style="clip-path:url(#SVGID_00000090263225186715182750000006947324325593089152_);fill:#FAE100;" width="23.16" height="26.27"/>
					</g>
					<g>
						<defs>
							<path id="SVGID_00000090975948576837317240000015855546946986811288_" d="M256.51,397.19h5.45c0,0,0.03,14.97,0,18.46
								c0.01,2.55,5.67,2.58,5.66,0.04l0.02-18.3c0,0,1.83,0.01,5.42,0.01c3.39,0,3.39-5.33,0-5.33c-3.82,0-16.58-0.1-16.58-0.1
								C253.3,391.97,253.31,397.19,256.51,397.19"/>
						</defs>
						<clipPath id="SVGID_00000173133733658529726010000004132947867418056367_">
							<use xlink:href="#SVGID_00000090975948576837317240000015855546946986811288_"  style="overflow:visible;"/>
						</clipPath>
					</g>
				</g>
				<g>
					<g>
						<defs>
							<path id="SVGID_00000040577075682976918540000000062315283583636359_" d="M282.6,398.16l3.03,9.5h-6.32L282.6,398.16z
								 M279.2,393.7c-1.34,2.95-6.19,16.9-7.79,20.6c-1.16,2.67,3.85,4.86,5.01,2.18l1.09-3.81h9.97c0,0-0.34,0.16,0.98,3.65
								c1.07,2.83,6.25,0.87,5.18-1.96c-1.53-4.04-6.83-18.6-7.8-20.66c-0.44-0.95-2.04-1.64-3.59-1.64
								C280.98,392.07,279.73,392.53,279.2,393.7"/>
						</defs>
						<clipPath id="SVGID_00000163775798885531167030000009016081419529695154_">
							<use xlink:href="#SVGID_00000040577075682976918540000000062315283583636359_"  style="overflow:visible;"/>
						</clipPath>
					</g>
					<g>
						<defs>
							<path id="SVGID_00000147909670775420265940000006097876287007738021_" d="M282.6,398.16l3.03,9.5h-6.32L282.6,398.16z
								 M279.2,393.7c-1.34,2.95-6.19,16.9-7.79,20.6c-1.16,2.67,3.85,4.86,5.01,2.18l1.09-3.81h9.97c0,0-0.34,0.16,0.98,3.65
								c1.07,2.83,6.25,0.87,5.18-1.96c-1.53-4.04-6.83-18.6-7.8-20.66c-0.44-0.95-2.04-1.64-3.59-1.64
								C280.98,392.07,279.73,392.53,279.2,393.7"/>
						</defs>
						<use xlink:href="#SVGID_00000147909670775420265940000006097876287007738021_"  style="overflow:visible;fill:#FAE100;"/>
						<clipPath id="SVGID_00000049219875473543287180000000169620130557504169_">
							<use xlink:href="#SVGID_00000147909670775420265940000006097876287007738021_"  style="overflow:visible;"/>
						</clipPath>
						
							<rect x="270.24" y="392.07" style="clip-path:url(#SVGID_00000049219875473543287180000000169620130557504169_);fill:#FAE100;" width="24.48" height="27.1"/>
					</g>
					<g>
						<defs>
							<path id="SVGID_00000063591861818929334330000006441724986748537483_" d="M282.6,398.16l3.03,9.5h-6.32L282.6,398.16z
								 M279.2,393.7c-1.34,2.95-6.19,16.9-7.79,20.6c-1.16,2.67,3.85,4.86,5.01,2.18l1.09-3.81h9.97c0,0-0.34,0.16,0.98,3.65
								c1.07,2.83,6.25,0.87,5.18-1.96c-1.53-4.04-6.83-18.6-7.8-20.66c-0.44-0.95-2.04-1.64-3.59-1.64
								C280.98,392.07,279.73,392.53,279.2,393.7"/>
						</defs>
						<clipPath id="SVGID_00000171707556829313798170000012307190122904116661_">
							<use xlink:href="#SVGID_00000063591861818929334330000006441724986748537483_"  style="overflow:visible;"/>
						</clipPath>
					</g>
				</g>
				<g>
					<g>
						<defs>
							<path id="SVGID_00000129207980327024414680000011648218089890560678_" d="M295.55,394.58c0.01,4.74,0.03,20.02,0.03,20.02
								s-0.44,3.04,2.17,3.04c2.6,0,8.38-0.03,10.94-0.03c2.56,0,2.55-5.45-0.01-5.45c-2.56,0-7.24-0.03-7.24-0.03
								s0.02-14.13,0.01-17.57c0-1.66-1.48-2.49-2.95-2.49C297.03,392.07,295.55,392.91,295.55,394.58"/>
						</defs>
						<clipPath id="SVGID_00000147942336586313519730000004435798679038898066_">
							<use xlink:href="#SVGID_00000129207980327024414680000011648218089890560678_"  style="overflow:visible;"/>
						</clipPath>
					</g>
					<g>
						<defs>
							<path id="SVGID_00000163033246997839369540000009911572254266125961_" d="M295.55,394.58c0.01,4.74,0.03,20.02,0.03,20.02
								s-0.44,3.04,2.17,3.04c2.6,0,8.38-0.03,10.94-0.03c2.56,0,2.55-5.45-0.01-5.45c-2.56,0-7.24-0.03-7.24-0.03
								s0.02-14.13,0.01-17.57c0-1.66-1.48-2.49-2.95-2.49C297.03,392.07,295.55,392.91,295.55,394.58"/>
						</defs>
						<use xlink:href="#SVGID_00000163033246997839369540000009911572254266125961_"  style="overflow:visible;fill:#FAE100;"/>
						<clipPath id="SVGID_00000024692547160081910310000001841340572800157867_">
							<use xlink:href="#SVGID_00000163033246997839369540000009911572254266125961_"  style="overflow:visible;"/>
						</clipPath>
						
							<rect x="295.14" y="392.07" style="clip-path:url(#SVGID_00000024692547160081910310000001841340572800157867_);fill:#FAE100;" width="16.11" height="25.56"/>
					</g>
					<g>
						<defs>
							<path id="SVGID_00000126294976797158647380000003456285330588169372_" d="M295.55,394.58c0.01,4.74,0.03,20.02,0.03,20.02
								s-0.44,3.04,2.17,3.04c2.6,0,8.38-0.03,10.94-0.03c2.56,0,2.55-5.45-0.01-5.45c-2.56,0-7.24-0.03-7.24-0.03
								s0.02-14.13,0.01-17.57c0-1.66-1.48-2.49-2.95-2.49C297.03,392.07,295.55,392.91,295.55,394.58"/>
						</defs>
						<clipPath id="SVGID_00000101790526346839786670000003376445093724947631_">
							<use xlink:href="#SVGID_00000126294976797158647380000003456285330588169372_"  style="overflow:visible;"/>
						</clipPath>
					</g>
				</g>
				<g>
					<g>
						<defs>
							<path id="SVGID_00000052100215730682472410000008070800951035786682_" d="M311.93,393.82c0.06,2.08-0.07,20.88-0.07,22.27
								c0,2.2,5.6,2.19,5.6,0c0-2.55,0-7.4,0-7.4l1.64-1.32l7.19,9.8c1.45,1.92,6.02-1.55,4.57-3.46l-7.63-10.05
								c0,0,5.18-5.6,7.22-7.63c1.19-1.18-2.5-4.9-3.69-3.71c-1.15,1.14-9.27,9.27-9.27,9.27s0.07-5.1,0-7.92
								c-0.03-1.07-1.34-1.59-2.69-1.59C313.37,392.08,311.9,392.68,311.93,393.82"/>
						</defs>
						<clipPath id="SVGID_00000010308327636869714190000007924306387346469524_">
							<use xlink:href="#SVGID_00000052100215730682472410000008070800951035786682_"  style="overflow:visible;"/>
						</clipPath>
					</g>
					<g>
						<defs>
							<path id="SVGID_00000175309133157036360260000013040333131563208084_" d="M311.93,393.82c0.06,2.08-0.07,20.88-0.07,22.27
								c0,2.2,5.6,2.19,5.6,0c0-2.55,0-7.4,0-7.4l1.64-1.32l7.19,9.8c1.45,1.92,6.02-1.55,4.57-3.46l-7.63-10.05
								c0,0,5.18-5.6,7.22-7.63c1.19-1.18-2.5-4.9-3.69-3.71c-1.15,1.14-9.27,9.27-9.27,9.27s0.07-5.1,0-7.92
								c-0.03-1.07-1.34-1.59-2.69-1.59C313.37,392.08,311.9,392.68,311.93,393.82"/>
						</defs>
						<use xlink:href="#SVGID_00000175309133157036360260000013040333131563208084_"  style="overflow:visible;fill:#FAE100;"/>
						<clipPath id="SVGID_00000146488439512965801690000007815575268357070262_">
							<use xlink:href="#SVGID_00000175309133157036360260000013040333131563208084_"  style="overflow:visible;"/>
						</clipPath>
						
							<rect x="311.87" y="391.14" style="clip-path:url(#SVGID_00000146488439512965801690000007815575268357070262_);fill:#FAE100;" width="20.45" height="27.96"/>
					</g>
					<g>
						<defs>
							<path id="SVGID_00000173883477068220287450000007571127413094935215_" d="M311.93,393.82c0.06,2.08-0.07,20.88-0.07,22.27
								c0,2.2,5.6,2.19,5.6,0c0-2.55,0-7.4,0-7.4l1.64-1.32l7.19,9.8c1.45,1.92,6.02-1.55,4.57-3.46l-7.63-10.05
								c0,0,5.18-5.6,7.22-7.63c1.19-1.18-2.5-4.9-3.69-3.71c-1.15,1.14-9.27,9.27-9.27,9.27s0.07-5.1,0-7.92
								c-0.03-1.07-1.34-1.59-2.69-1.59C313.37,392.08,311.9,392.68,311.93,393.82"/>
						</defs>
						<clipPath id="SVGID_00000003084008016967621420000005173334296819101359_">
							<use xlink:href="#SVGID_00000173883477068220287450000007571127413094935215_"  style="overflow:visible;"/>
						</clipPath>
					</g>
				</g>
			</g>
		</g>
		<g>
			<path class="st1" d="M477.96,364.38c-27.25,0-49.35,17.46-49.35,39.01c0,14.02,9.36,26.32,23.41,33.19
				c-1.03,3.85-3.74,13.96-4.28,16.12c-0.67,2.68,0.98,2.65,2.07,1.93c0.85-0.57,13.52-9.19,18.99-12.9
				c2.97,0.44,6.03,0.67,9.16,0.67c27.25,0,49.35-17.46,49.35-39.01C527.31,381.85,505.21,364.38,477.96,364.38"/>
			<g>
				<g>
					<g>
						<defs>
							<path id="SVGID_00000011743498951554832460000004814011440686586551_" d="M443.53,396.21h5.08c0,0,0.03,13.95,0,17.2
								c0.01,2.37,5.28,2.4,5.28,0.03l0.02-17.05c0,0,1.7,0.01,5.05,0.01c3.16,0,3.16-4.96,0-4.97c-3.56,0-15.45-0.1-15.45-0.1
								C440.54,391.34,440.55,396.21,443.53,396.21"/>
						</defs>
						<clipPath id="SVGID_00000039824863351075254810000017570918488579950497_">
							<use xlink:href="#SVGID_00000011743498951554832460000004814011440686586551_"  style="overflow:visible;"/>
						</clipPath>
					</g>
					<g>
						<defs>
							<path id="SVGID_00000063617201459632046700000004851890297025987007_" d="M443.53,396.21h5.08c0,0,0.03,13.95,0,17.2
								c0.01,2.37,5.28,2.4,5.28,0.03l0.02-17.05c0,0,1.7,0.01,5.05,0.01c3.16,0,3.16-4.96,0-4.97c-3.56,0-15.45-0.1-15.45-0.1
								C440.54,391.34,440.55,396.21,443.53,396.21"/>
						</defs>
						<use xlink:href="#SVGID_00000063617201459632046700000004851890297025987007_"  style="overflow:visible;fill:#FAE100;"/>
						<clipPath id="SVGID_00000176756597537906825540000006038764697501894843_">
							<use xlink:href="#SVGID_00000063617201459632046700000004851890297025987007_"  style="overflow:visible;"/>
						</clipPath>
						
							<rect x="440.54" y="391.34" style="clip-path:url(#SVGID_00000176756597537906825540000006038764697501894843_);fill:#FAE100;" width="21.59" height="24.48"/>
					</g>
					<g>
						<defs>
							<path id="SVGID_00000110442020333937548340000006652925641060453778_" d="M443.53,396.21h5.08c0,0,0.03,13.95,0,17.2
								c0.01,2.37,5.28,2.4,5.28,0.03l0.02-17.05c0,0,1.7,0.01,5.05,0.01c3.16,0,3.16-4.96,0-4.97c-3.56,0-15.45-0.1-15.45-0.1
								C440.54,391.34,440.55,396.21,443.53,396.21"/>
						</defs>
						<clipPath id="SVGID_00000087374039860848965840000015502359989728594063_">
							<use xlink:href="#SVGID_00000110442020333937548340000006652925641060453778_"  style="overflow:visible;"/>
						</clipPath>
					</g>
				</g>
				<g>
					<g>
						<defs>
							<path id="SVGID_00000089537192398393362200000009195204434395040173_" d="M467.84,397.11l2.83,8.86h-5.89L467.84,397.11z
								 M464.68,392.97c-1.25,2.75-5.76,15.75-7.26,19.2c-1.08,2.49,3.59,4.52,4.67,2.03l1.02-3.55h9.29c0,0-0.32,0.15,0.91,3.4
								c1,2.64,5.83,0.81,4.82-1.83c-1.43-3.77-6.36-17.33-7.26-19.25c-0.41-0.89-1.9-1.52-3.34-1.52
								C466.33,391.44,465.17,391.88,464.68,392.97"/>
						</defs>
						<clipPath id="SVGID_00000111149421336028767200000004668138097768175008_">
							<use xlink:href="#SVGID_00000089537192398393362200000009195204434395040173_"  style="overflow:visible;"/>
						</clipPath>
					</g>
					<g>
						<defs>
							<path id="SVGID_00000176758348914473546290000001274133237707777197_" d="M467.84,397.11l2.83,8.86h-5.89L467.84,397.11z
								 M464.68,392.97c-1.25,2.75-5.76,15.75-7.26,19.2c-1.08,2.49,3.59,4.52,4.67,2.03l1.02-3.55h9.29c0,0-0.32,0.15,0.91,3.4
								c1,2.64,5.83,0.81,4.82-1.83c-1.43-3.77-6.36-17.33-7.26-19.25c-0.41-0.89-1.9-1.52-3.34-1.52
								C466.33,391.44,465.17,391.88,464.68,392.97"/>
						</defs>
						<use xlink:href="#SVGID_00000176758348914473546290000001274133237707777197_"  style="overflow:visible;fill:#FAE100;"/>
						<clipPath id="SVGID_00000039120720487442639450000016698913267102277565_">
							<use xlink:href="#SVGID_00000176758348914473546290000001274133237707777197_"  style="overflow:visible;"/>
						</clipPath>
						
							<rect x="456.33" y="391.44" style="clip-path:url(#SVGID_00000039120720487442639450000016698913267102277565_);fill:#FAE100;" width="22.81" height="25.25"/>
					</g>
					<g>
						<defs>
							<path id="SVGID_00000147191888394365742850000015735761542168092348_" d="M467.84,397.11l2.83,8.86h-5.89L467.84,397.11z
								 M464.68,392.97c-1.25,2.75-5.76,15.75-7.26,19.2c-1.08,2.49,3.59,4.52,4.67,2.03l1.02-3.55h9.29c0,0-0.32,0.15,0.91,3.4
								c1,2.64,5.83,0.81,4.82-1.83c-1.43-3.77-6.36-17.33-7.26-19.25c-0.41-0.89-1.9-1.52-3.34-1.52
								C466.33,391.44,465.17,391.88,464.68,392.97"/>
						</defs>
						<clipPath id="SVGID_00000085239994912222495220000006336342432890115712_">
							<use xlink:href="#SVGID_00000147191888394365742850000015735761542168092348_"  style="overflow:visible;"/>
						</clipPath>
					</g>
				</g>
				<g>
					<g>
						<defs>
							<path id="SVGID_00000098222324236174331610000016147710794444762285_" d="M479.91,393.78c0.01,4.42,0.03,18.66,0.03,18.66
								s-0.41,2.83,2.02,2.83c2.43,0,7.81-0.03,10.2-0.03c2.39,0,2.37-5.08-0.01-5.08c-2.39,0-6.74-0.03-6.74-0.03
								s0.02-13.17,0.01-16.37c0-1.55-1.38-2.32-2.75-2.32C481.29,391.44,479.91,392.22,479.91,393.78"/>
						</defs>
						<clipPath id="SVGID_00000113328089979428143730000009868874894143572622_">
							<use xlink:href="#SVGID_00000098222324236174331610000016147710794444762285_"  style="overflow:visible;"/>
						</clipPath>
					</g>
					<g>
						<defs>
							<path id="SVGID_00000179637863807268559160000001492403089230914459_" d="M479.91,393.78c0.01,4.42,0.03,18.66,0.03,18.66
								s-0.41,2.83,2.02,2.83c2.43,0,7.81-0.03,10.2-0.03c2.39,0,2.37-5.08-0.01-5.08c-2.39,0-6.74-0.03-6.74-0.03
								s0.02-13.17,0.01-16.37c0-1.55-1.38-2.32-2.75-2.32C481.29,391.44,479.91,392.22,479.91,393.78"/>
						</defs>
						<use xlink:href="#SVGID_00000179637863807268559160000001492403089230914459_"  style="overflow:visible;fill:#FAE100;"/>
						<clipPath id="SVGID_00000125581161961780336070000009558259548439658393_">
							<use xlink:href="#SVGID_00000179637863807268559160000001492403089230914459_"  style="overflow:visible;"/>
						</clipPath>
						
							<rect x="479.53" y="391.44" style="clip-path:url(#SVGID_00000125581161961780336070000009558259548439658393_);fill:#FAE100;" width="15.01" height="23.82"/>
					</g>
					<g>
						<defs>
							<path id="SVGID_00000071554909723064251070000009467472785539448752_" d="M479.91,393.78c0.01,4.42,0.03,18.66,0.03,18.66
								s-0.41,2.83,2.02,2.83c2.43,0,7.81-0.03,10.2-0.03c2.39,0,2.37-5.08-0.01-5.08c-2.39,0-6.74-0.03-6.74-0.03
								s0.02-13.17,0.01-16.37c0-1.55-1.38-2.32-2.75-2.32C481.29,391.44,479.91,392.22,479.91,393.78"/>
						</defs>
						<clipPath id="SVGID_00000085208792031517374500000010335700501304157864_">
							<use xlink:href="#SVGID_00000071554909723064251070000009467472785539448752_"  style="overflow:visible;"/>
						</clipPath>
					</g>
				</g>
				<g>
					<g>
						<defs>
							<path id="SVGID_00000079450070842260231220000002782180010703409061_" d="M495.18,393.08c0.05,1.94-0.06,19.45-0.06,20.75
								c0,2.05,5.22,2.04,5.21,0c0-2.38,0-6.89,0-6.89l1.53-1.23l6.7,9.14c1.35,1.79,5.61-1.44,4.26-3.23l-7.11-9.37
								c0,0,4.83-5.22,6.73-7.11c1.11-1.1-2.33-4.57-3.44-3.46c-1.08,1.07-8.64,8.64-8.64,8.64s0.07-4.75,0-7.38
								c-0.03-1-1.25-1.48-2.5-1.48C496.52,391.46,495.15,392.01,495.18,393.08"/>
						</defs>
						<clipPath id="SVGID_00000037694428127343676080000014130237037476728217_">
							<use xlink:href="#SVGID_00000079450070842260231220000002782180010703409061_"  style="overflow:visible;"/>
						</clipPath>
					</g>
					<g>
						<defs>
							<path id="SVGID_00000098934720502408189440000015143463642536590484_" d="M495.18,393.08c0.05,1.94-0.06,19.45-0.06,20.75
								c0,2.05,5.22,2.04,5.21,0c0-2.38,0-6.89,0-6.89l1.53-1.23l6.7,9.14c1.35,1.79,5.61-1.44,4.26-3.23l-7.11-9.37
								c0,0,4.83-5.22,6.73-7.11c1.11-1.1-2.33-4.57-3.44-3.46c-1.08,1.07-8.64,8.64-8.64,8.64s0.07-4.75,0-7.38
								c-0.03-1-1.25-1.48-2.5-1.48C496.52,391.46,495.15,392.01,495.18,393.08"/>
						</defs>
						<use xlink:href="#SVGID_00000098934720502408189440000015143463642536590484_"  style="overflow:visible;fill:#FAE100;"/>
						<clipPath id="SVGID_00000081619055723781076360000012606578510476909220_">
							<use xlink:href="#SVGID_00000098934720502408189440000015143463642536590484_"  style="overflow:visible;"/>
						</clipPath>
						
							<rect x="495.12" y="390.57" style="clip-path:url(#SVGID_00000081619055723781076360000012606578510476909220_);fill:#FAE100;" width="19.06" height="26.05"/>
					</g>
					<g>
						<defs>
							<path id="SVGID_00000178893236420607443100000015741354620305399480_" d="M495.18,393.08c0.05,1.94-0.06,19.45-0.06,20.75
								c0,2.05,5.22,2.04,5.21,0c0-2.38,0-6.89,0-6.89l1.53-1.23l6.7,9.14c1.35,1.79,5.61-1.44,4.26-3.23l-7.11-9.37
								c0,0,4.83-5.22,6.73-7.11c1.11-1.1-2.33-4.57-3.44-3.46c-1.08,1.07-8.64,8.64-8.64,8.64s0.07-4.75,0-7.38
								c-0.03-1-1.25-1.48-2.5-1.48C496.52,391.46,495.15,392.01,495.18,393.08"/>
						</defs>
						<clipPath id="SVGID_00000051356723858708587600000003216593303622002568_">
							<use xlink:href="#SVGID_00000178893236420607443100000015741354620305399480_"  style="overflow:visible;"/>
						</clipPath>
					</g>
				</g>
			</g>
		</g>
		<g>
			<path class="st1" d="M637.94,364.38c-27.25,0-49.35,17.46-49.35,39.01c0,14.02,9.36,26.32,23.41,33.19
				c-1.03,3.85-3.74,13.96-4.28,16.12c-0.67,2.68,0.98,2.65,2.07,1.93c0.85-0.57,13.52-9.19,18.99-12.9
				c2.97,0.44,6.03,0.67,9.16,0.67c27.25,0,49.35-17.46,49.35-39.01C687.29,381.85,665.2,364.38,637.94,364.38"/>
			<g>
				<g>
					<g>
						<defs>
							<path id="SVGID_00000005953214294421600770000004409417589221980561_" d="M603.52,396.21h5.08c0,0,0.03,13.95,0,17.2
								c0.01,2.37,5.28,2.4,5.28,0.03l0.02-17.05c0,0,1.7,0.01,5.05,0.01c3.16,0,3.16-4.96,0-4.97c-3.56,0-15.45-0.1-15.45-0.1
								C600.53,391.34,600.54,396.21,603.52,396.21"/>
						</defs>
						<clipPath id="SVGID_00000116204496561237026220000002096019814525381278_">
							<use xlink:href="#SVGID_00000005953214294421600770000004409417589221980561_"  style="overflow:visible;"/>
						</clipPath>
					</g>
					<g>
						<defs>
							<path id="SVGID_00000019648179512134430490000005371716942805946047_" d="M603.52,396.21h5.08c0,0,0.03,13.95,0,17.2
								c0.01,2.37,5.28,2.4,5.28,0.03l0.02-17.05c0,0,1.7,0.01,5.05,0.01c3.16,0,3.16-4.96,0-4.97c-3.56,0-15.45-0.1-15.45-0.1
								C600.53,391.34,600.54,396.21,603.52,396.21"/>
						</defs>
						<use xlink:href="#SVGID_00000019648179512134430490000005371716942805946047_"  style="overflow:visible;fill:#FFFFFF;"/>
						<clipPath id="SVGID_00000066485072899256473690000017760875988552547756_">
							<use xlink:href="#SVGID_00000019648179512134430490000005371716942805946047_"  style="overflow:visible;"/>
						</clipPath>
						
							<rect x="600.53" y="391.34" style="clip-path:url(#SVGID_00000066485072899256473690000017760875988552547756_);fill:#FFFFFF;" width="21.59" height="24.48"/>
					</g>
					<g>
						<defs>
							<path id="SVGID_00000044136816761634500090000010730421845780585863_" d="M603.52,396.21h5.08c0,0,0.03,13.95,0,17.2
								c0.01,2.37,5.28,2.4,5.28,0.03l0.02-17.05c0,0,1.7,0.01,5.05,0.01c3.16,0,3.16-4.96,0-4.97c-3.56,0-15.45-0.1-15.45-0.1
								C600.53,391.34,600.54,396.21,603.52,396.21"/>
						</defs>
						<clipPath id="SVGID_00000052071027268042370810000003927859178643666590_">
							<use xlink:href="#SVGID_00000044136816761634500090000010730421845780585863_"  style="overflow:visible;"/>
						</clipPath>
					</g>
				</g>
				<g>
					<g>
						<defs>
							<path id="SVGID_00000116211673705158386430000000806651074901962166_" d="M627.83,397.11l2.83,8.86h-5.89L627.83,397.11z
								 M624.66,392.97c-1.25,2.75-5.76,15.75-7.26,19.2c-1.08,2.49,3.59,4.52,4.67,2.03l1.02-3.55h9.29c0,0-0.32,0.15,0.91,3.4
								c1,2.64,5.83,0.81,4.82-1.83c-1.43-3.77-6.36-17.33-7.26-19.25c-0.41-0.89-1.9-1.52-3.34-1.52
								C626.32,391.44,625.15,391.88,624.66,392.97"/>
						</defs>
						<clipPath id="SVGID_00000160184387410348122130000012630663781930657426_">
							<use xlink:href="#SVGID_00000116211673705158386430000000806651074901962166_"  style="overflow:visible;"/>
						</clipPath>
					</g>
					<g>
						<defs>
							<path id="SVGID_00000044162441611073037070000007870764110883296185_" d="M627.83,397.11l2.83,8.86h-5.89L627.83,397.11z
								 M624.66,392.97c-1.25,2.75-5.76,15.75-7.26,19.2c-1.08,2.49,3.59,4.52,4.67,2.03l1.02-3.55h9.29c0,0-0.32,0.15,0.91,3.4
								c1,2.64,5.83,0.81,4.82-1.83c-1.43-3.77-6.36-17.33-7.26-19.25c-0.41-0.89-1.9-1.52-3.34-1.52
								C626.32,391.44,625.15,391.88,624.66,392.97"/>
						</defs>
						<use xlink:href="#SVGID_00000044162441611073037070000007870764110883296185_"  style="overflow:visible;fill:#FFFFFF;"/>
						<clipPath id="SVGID_00000103250324951673395970000004369314592691772601_">
							<use xlink:href="#SVGID_00000044162441611073037070000007870764110883296185_"  style="overflow:visible;"/>
						</clipPath>
						
							<rect x="616.31" y="391.44" style="clip-path:url(#SVGID_00000103250324951673395970000004369314592691772601_);fill:#FFFFFF;" width="22.81" height="25.25"/>
					</g>
					<g>
						<defs>
							<path id="SVGID_00000010296041156744345430000009121893592188336550_" d="M627.83,397.11l2.83,8.86h-5.89L627.83,397.11z
								 M624.66,392.97c-1.25,2.75-5.76,15.75-7.26,19.2c-1.08,2.49,3.59,4.52,4.67,2.03l1.02-3.55h9.29c0,0-0.32,0.15,0.91,3.4
								c1,2.64,5.83,0.81,4.82-1.83c-1.43-3.77-6.36-17.33-7.26-19.25c-0.41-0.89-1.9-1.52-3.34-1.52
								C626.32,391.44,625.15,391.88,624.66,392.97"/>
						</defs>
						<clipPath id="SVGID_00000089537786642073181380000004427859970319995316_">
							<use xlink:href="#SVGID_00000010296041156744345430000009121893592188336550_"  style="overflow:visible;"/>
						</clipPath>
					</g>
				</g>
				<g>
					<g>
						<defs>
							<path id="SVGID_00000080188219641465996440000006928313057684839591_" d="M639.9,393.78c0.01,4.42,0.03,18.66,0.03,18.66
								s-0.41,2.83,2.02,2.83c2.43,0,7.81-0.03,10.2-0.03c2.39,0,2.37-5.08-0.01-5.08c-2.39,0-6.74-0.03-6.74-0.03
								s0.02-13.17,0.01-16.37c0-1.55-1.38-2.32-2.75-2.32C641.27,391.44,639.9,392.22,639.9,393.78"/>
						</defs>
						<clipPath id="SVGID_00000065063563305657992260000002831550334502747273_">
							<use xlink:href="#SVGID_00000080188219641465996440000006928313057684839591_"  style="overflow:visible;"/>
						</clipPath>
					</g>
					<g>
						<defs>
							<path id="SVGID_00000008130003828876800360000017318030346294531749_" d="M639.9,393.78c0.01,4.42,0.03,18.66,0.03,18.66
								s-0.41,2.83,2.02,2.83c2.43,0,7.81-0.03,10.2-0.03c2.39,0,2.37-5.08-0.01-5.08c-2.39,0-6.74-0.03-6.74-0.03
								s0.02-13.17,0.01-16.37c0-1.55-1.38-2.32-2.75-2.32C641.27,391.44,639.9,392.22,639.9,393.78"/>
						</defs>
						<use xlink:href="#SVGID_00000008130003828876800360000017318030346294531749_"  style="overflow:visible;fill:#FFFFFF;"/>
						<clipPath id="SVGID_00000001645980100947979850000010892999452416610991_">
							<use xlink:href="#SVGID_00000008130003828876800360000017318030346294531749_"  style="overflow:visible;"/>
						</clipPath>
						
							<rect x="639.52" y="391.44" style="clip-path:url(#SVGID_00000001645980100947979850000010892999452416610991_);fill:#FFFFFF;" width="15.01" height="23.82"/>
					</g>
					<g>
						<defs>
							<path id="SVGID_00000018944915664402913170000003635993340634001582_" d="M639.9,393.78c0.01,4.42,0.03,18.66,0.03,18.66
								s-0.41,2.83,2.02,2.83c2.43,0,7.81-0.03,10.2-0.03c2.39,0,2.37-5.08-0.01-5.08c-2.39,0-6.74-0.03-6.74-0.03
								s0.02-13.17,0.01-16.37c0-1.55-1.38-2.32-2.75-2.32C641.27,391.44,639.9,392.22,639.9,393.78"/>
						</defs>
						<clipPath id="SVGID_00000166637039957579015880000012728340418432363697_">
							<use xlink:href="#SVGID_00000018944915664402913170000003635993340634001582_"  style="overflow:visible;"/>
						</clipPath>
					</g>
				</g>
				<g>
					<g>
						<defs>
							<path id="SVGID_00000087388314423475090620000010724234707904256386_" d="M655.16,393.08c0.05,1.94-0.06,19.45-0.06,20.75
								c0,2.05,5.22,2.04,5.21,0c0-2.38,0-6.89,0-6.89l1.53-1.23l6.7,9.14c1.35,1.79,5.61-1.44,4.26-3.23l-7.11-9.37
								c0,0,4.83-5.22,6.73-7.11c1.11-1.1-2.33-4.57-3.44-3.46c-1.08,1.07-8.64,8.64-8.64,8.64s0.07-4.75,0-7.38
								c-0.03-1-1.25-1.48-2.5-1.48C656.51,391.46,655.14,392.01,655.16,393.08"/>
						</defs>
						<clipPath id="SVGID_00000147939578906176579590000003036498889591042961_">
							<use xlink:href="#SVGID_00000087388314423475090620000010724234707904256386_"  style="overflow:visible;"/>
						</clipPath>
					</g>
					<g>
						<defs>
							<path id="SVGID_00000064352115203400188100000009779996102323849661_" d="M655.16,393.08c0.05,1.94-0.06,19.45-0.06,20.75
								c0,2.05,5.22,2.04,5.21,0c0-2.38,0-6.89,0-6.89l1.53-1.23l6.7,9.14c1.35,1.79,5.61-1.44,4.26-3.23l-7.11-9.37
								c0,0,4.83-5.22,6.73-7.11c1.11-1.1-2.33-4.57-3.44-3.46c-1.08,1.07-8.64,8.64-8.64,8.64s0.07-4.75,0-7.38
								c-0.03-1-1.25-1.48-2.5-1.48C656.51,391.46,655.14,392.01,655.16,393.08"/>
						</defs>
						<use xlink:href="#SVGID_00000064352115203400188100000009779996102323849661_"  style="overflow:visible;fill:#FFFFFF;"/>
						<clipPath id="SVGID_00000046321618478190251480000003353829827707157389_">
							<use xlink:href="#SVGID_00000064352115203400188100000009779996102323849661_"  style="overflow:visible;"/>
						</clipPath>
						
							<rect x="655.1" y="390.57" style="clip-path:url(#SVGID_00000046321618478190251480000003353829827707157389_);fill:#FFFFFF;" width="19.06" height="26.05"/>
					</g>
					<g>
						<defs>
							<path id="SVGID_00000014596197678522409420000007780272734856628384_" d="M655.16,393.08c0.05,1.94-0.06,19.45-0.06,20.75
								c0,2.05,5.22,2.04,5.21,0c0-2.38,0-6.89,0-6.89l1.53-1.23l6.7,9.14c1.35,1.79,5.61-1.44,4.26-3.23l-7.11-9.37
								c0,0,4.83-5.22,6.73-7.11c1.11-1.1-2.33-4.57-3.44-3.46c-1.08,1.07-8.64,8.64-8.64,8.64s0.07-4.75,0-7.38
								c-0.03-1-1.25-1.48-2.5-1.48C656.51,391.46,655.14,392.01,655.16,393.08"/>
						</defs>
						<clipPath id="SVGID_00000090260300646741624900000009118383597725277338_">
							<use xlink:href="#SVGID_00000014596197678522409420000007780272734856628384_"  style="overflow:visible;"/>
						</clipPath>
					</g>
				</g>
			</g>
		</g>
	</g>
	<text transform="matrix(1 0 0 1 18.2027 305.6855)" class="st1" style="font-family:'AppleSDGothicNeoB00'; font-size:18px;">카카오톡</text>
</g>
<g>
	<g>
		<g>
			<path class="st2" d="M158.58,699.66c0,18.2-14.67,32.95-32.76,32.95H44.11c-18.09,0-32.76-14.75-32.76-32.95v-82.19
				c0-18.2,14.67-32.95,32.76-32.95h81.72c18.09,0,32.76,14.75,32.76,32.95V699.66z"/>
			<path class="st2" d="M84.89,616.85c-25.72,0-46.57,19.28-46.57,43.07c0,17.57,7.36,25.96,17.44,33.6l0.05,0.02v20.62
				c0,0.98,1.11,1.53,1.89,0.95L75.35,702l0.38,0.16c2.96,0.55,6.02,0.83,9.15,0.83c25.72,0,46.56-19.29,46.56-43.07
				C131.45,636.13,110.61,616.85,84.89,616.85"/>
			<path class="st19" d="M84.89,610.52c-25.72,0-46.57,19.28-46.57,43.07c0,17.57,7.36,25.96,17.44,33.6l0.05,0.02v20.62
				c0,0.98,1.11,1.53,1.89,0.95l17.66-13.11l0.38,0.16c2.96,0.55,6.02,0.83,9.15,0.83c25.72,0,46.56-19.28,46.56-43.07
				C131.45,629.81,110.61,610.52,84.89,610.52 M69.28,664.51c4.57,0,8.47-2.73,9.65-6.95h6.75C84.02,665.68,77.7,671,69.28,671
				c-9.79,0-17.55-7.3-17.55-17.46c0-10.16,7.76-17.46,17.55-17.46c8.51,0,14.87,5.43,16.44,13.7h-6.73
				c-1.02-4.49-5.06-7.29-9.71-7.29c-6.58,0-10.96,4.69-10.96,11.05C58.32,659.91,63.3,664.51,69.28,664.51 M113.77,670.33h-6.19
				v-13.96c0-3.21-1.87-4.94-4.75-4.94c-3.21,0-5.28,1.97-5.28,5.95v12.95h-6.19V636.2h6.19v12.84c1.48-2.25,3.88-3.36,7.14-3.36
				c2.64,0,4.8,0.86,6.47,2.64c1.73,1.77,2.59,4.17,2.59,7.29V670.33z"/>
		</g>
		<g>
			<rect x="220.19" y="585.15" class="st2" width="146.81" height="146.81"/>
			<path class="st19" d="M293.31,613.06c-25.72,0-46.57,19.28-46.57,43.07c0,17.57,7.36,25.96,17.44,33.6l0.05,0.02v20.62
				c0,0.98,1.11,1.53,1.89,0.95l17.66-13.11l0.38,0.16c2.96,0.55,6.02,0.83,9.15,0.83c25.72,0,46.56-19.28,46.56-43.07
				C339.88,632.34,319.03,613.06,293.31,613.06 M277.7,667.04c4.57,0,8.47-2.73,9.65-6.95h6.75c-1.65,8.12-7.97,13.45-16.39,13.45
				c-9.79,0-17.55-7.3-17.55-17.46c0-10.16,7.76-17.46,17.55-17.46c8.51,0,14.87,5.43,16.44,13.7h-6.73
				c-1.02-4.49-5.06-7.29-9.71-7.29c-6.58,0-10.96,4.69-10.96,11.05C266.74,662.44,271.72,667.04,277.7,667.04 M322.19,672.87H316
				v-13.96c0-3.21-1.87-4.94-4.75-4.94c-3.21,0-5.28,1.97-5.28,5.95v12.95h-6.19v-34.14h6.19v12.84c1.48-2.25,3.88-3.36,7.14-3.36
				c2.64,0,4.8,0.86,6.47,2.64c1.73,1.77,2.59,4.17,2.59,7.29V672.87z"/>
		</g>
		<g>
			<path class="st20" d="M477.96,614.85c-22.83,0-41.33,17.11-41.33,38.23c0,15.59,6.53,23.04,15.48,29.82l0.04,0.02v18.3
				c0,0.87,0.99,1.36,1.68,0.84l15.67-11.64l0.34,0.15c2.63,0.48,5.34,0.74,8.12,0.74c22.82,0,41.33-17.12,41.33-38.23
				C519.29,631.97,500.78,614.85,477.96,614.85"/>
			<path class="st19" d="M477.96,612.67c-23.97,0-43.39,17.97-43.39,40.13c0,16.37,6.86,24.19,16.25,31.31l0.04,0.02v19.21
				c0,0.91,1.04,1.43,1.76,0.88l16.45-12.22l0.36,0.15c2.76,0.51,5.61,0.78,8.53,0.78c23.96,0,43.39-17.97,43.39-40.14
				C521.35,630.64,501.92,612.67,477.96,612.67 M463.41,662.98c4.25,0,7.89-2.55,8.99-6.48h6.29c-1.54,7.57-7.43,12.53-15.28,12.53
				c-9.12,0-16.35-6.8-16.35-16.27c0-9.47,7.23-16.27,16.35-16.27c7.93,0,13.86,5.06,15.32,12.76h-6.27
				c-0.95-4.19-4.72-6.8-9.05-6.8c-6.13,0-10.21,4.37-10.21,10.3C453.2,658.69,457.84,662.98,463.41,662.98 M504.87,668.4h-5.77
				V655.4c0-2.99-1.74-4.6-4.42-4.6c-2.99,0-4.92,1.83-4.92,5.54v12.07h-5.77v-31.81h5.77v11.96c1.38-2.1,3.62-3.13,6.66-3.13
				c2.46,0,4.47,0.8,6.03,2.46c1.61,1.65,2.42,3.89,2.42,6.79V668.4z"/>
		</g>
		<g>
			<path class="st21" d="M637.94,614.85c-22.83,0-41.33,17.11-41.33,38.23c0,15.59,6.53,23.04,15.48,29.82l0.04,0.02v18.3
				c0,0.87,0.99,1.36,1.68,0.84l15.67-11.64l0.34,0.15c2.63,0.48,5.34,0.74,8.12,0.74c22.82,0,41.33-17.12,41.33-38.23
				C679.27,631.97,660.77,614.85,637.94,614.85"/>
			<path class="st2" d="M637.94,612.67c-23.97,0-43.39,17.97-43.39,40.13c0,16.37,6.86,24.19,16.25,31.31l0.04,0.02v19.21
				c0,0.91,1.04,1.43,1.76,0.88l16.45-12.22l0.36,0.15c2.76,0.51,5.61,0.78,8.53,0.78c23.96,0,43.39-17.97,43.39-40.14
				C681.33,630.64,661.91,612.67,637.94,612.67 M623.4,662.97c4.25,0,7.89-2.55,8.99-6.48h6.29c-1.54,7.57-7.43,12.53-15.28,12.53
				c-9.12,0-16.35-6.8-16.35-16.27c0-9.46,7.23-16.27,16.35-16.27c7.93,0,13.86,5.06,15.32,12.76h-6.27
				c-0.95-4.19-4.72-6.8-9.05-6.8c-6.13,0-10.21,4.37-10.21,10.3C613.19,658.69,617.82,662.97,623.4,662.97 M664.85,668.4h-5.77
				V655.4c0-2.99-1.74-4.6-4.42-4.6c-2.99,0-4.92,1.83-4.92,5.54v12.07h-5.77v-31.81h5.77v11.96c1.38-2.1,3.62-3.13,6.66-3.13
				c2.46,0,4.47,0.8,6.03,2.46c1.61,1.65,2.42,3.89,2.42,6.79V668.4z"/>
		</g>
	</g>
	<text transform="matrix(1 0 0 1 18.2027 554.6678)" class="st1" style="font-family:'AppleSDGothicNeoB00'; font-size:18px;">카카오톡 채널</text>
</g>
<g>
	<path class="st2" d="M-39.2,89.46c0,18.2-14.67,32.95-32.76,32.95h-81.72c-18.09,0-32.76-14.75-32.76-32.95V7.28
		c0-18.2,14.67-32.95,32.76-32.95h81.72c18.09,0,32.76,14.75,32.76,32.95V89.46z"/>
	<path class="st1" d="M59.56,11.9C30.31,11.9,6.6,30.65,6.6,53.77c0,15.05,10.04,28.24,25.12,35.62c-1.11,4.13-4.01,14.98-4.59,17.3
		c-0.72,2.88,1.05,2.84,2.22,2.07c0.91-0.61,14.51-9.86,20.38-13.85c3.19,0.47,6.47,0.72,9.83,0.72c29.25,0,52.96-18.74,52.96-41.86
		C112.51,30.65,88.8,11.9,59.56,11.9"/>
	<g>
		<g>
			<g>
				<defs>
					<path id="SVGID_00000124850880125425506970000001478950277664811171_" d="M22.61,46.06h5.45c0,0,0.03,14.97,0,18.46
						c0.01,2.55,5.67,2.58,5.66,0.04l0.02-18.3c0,0,1.83,0.01,5.42,0.01c3.39,0,3.39-5.33,0-5.33c-3.82,0-16.58-0.11-16.58-0.11
						C19.4,40.84,19.41,46.06,22.61,46.06"/>
				</defs>
				<clipPath id="SVGID_00000121257947906419544260000007485223191304834728_">
					<use xlink:href="#SVGID_00000124850880125425506970000001478950277664811171_"  style="overflow:visible;"/>
				</clipPath>
			</g>
			<g>
				<defs>
					<path id="SVGID_00000132071227565576303670000008556069002588161423_" d="M22.61,46.06h5.45c0,0,0.03,14.97,0,18.46
						c0.01,2.55,5.67,2.58,5.66,0.04l0.02-18.3c0,0,1.83,0.01,5.42,0.01c3.39,0,3.39-5.33,0-5.33c-3.82,0-16.58-0.11-16.58-0.11
						C19.4,40.84,19.41,46.06,22.61,46.06"/>
				</defs>
				<use xlink:href="#SVGID_00000132071227565576303670000008556069002588161423_"  style="overflow:visible;fill:#FAE100;"/>
				<clipPath id="SVGID_00000088825665731483736370000006943619061805303173_">
					<use xlink:href="#SVGID_00000132071227565576303670000008556069002588161423_"  style="overflow:visible;"/>
				</clipPath>
				
					<rect x="19.4" y="40.84" style="clip-path:url(#SVGID_00000088825665731483736370000006943619061805303173_);fill:#FAE100;" width="23.16" height="26.27"/>
			</g>
			<g>
				<defs>
					<path id="SVGID_00000178916196781930703630000014787070687789219726_" d="M22.61,46.06h5.45c0,0,0.03,14.97,0,18.46
						c0.01,2.55,5.67,2.58,5.66,0.04l0.02-18.3c0,0,1.83,0.01,5.42,0.01c3.39,0,3.39-5.33,0-5.33c-3.82,0-16.58-0.11-16.58-0.11
						C19.4,40.84,19.41,46.06,22.61,46.06"/>
				</defs>
				<clipPath id="SVGID_00000052826625252212159270000014812967487430691227_">
					<use xlink:href="#SVGID_00000178916196781930703630000014787070687789219726_"  style="overflow:visible;"/>
				</clipPath>
			</g>
		</g>
		<g>
			<g>
				<defs>
					<path id="SVGID_00000116918227008358614840000000143896590967898020_" d="M48.7,47.03l3.03,9.5h-6.32L48.7,47.03z M45.3,42.58
						c-1.34,2.95-6.19,16.9-7.79,20.6c-1.16,2.67,3.85,4.86,5.01,2.18l1.09-3.81h9.97c0,0-0.34,0.16,0.98,3.65
						c1.07,2.83,6.25,0.87,5.18-1.96c-1.53-4.04-6.83-18.6-7.8-20.66c-0.44-0.95-2.04-1.64-3.59-1.64
						C47.08,40.94,45.83,41.41,45.3,42.58"/>
				</defs>
				<clipPath id="SVGID_00000083775696734193060760000003939434514058863494_">
					<use xlink:href="#SVGID_00000116918227008358614840000000143896590967898020_"  style="overflow:visible;"/>
				</clipPath>
			</g>
			<g>
				<defs>
					<path id="SVGID_00000076565606043675304240000017347056849747096503_" d="M48.7,47.03l3.03,9.5h-6.32L48.7,47.03z M45.3,42.58
						c-1.34,2.95-6.19,16.9-7.79,20.6c-1.16,2.67,3.85,4.86,5.01,2.18l1.09-3.81h9.97c0,0-0.34,0.16,0.98,3.65
						c1.07,2.83,6.25,0.87,5.18-1.96c-1.53-4.04-6.83-18.6-7.8-20.66c-0.44-0.95-2.04-1.64-3.59-1.64
						C47.08,40.94,45.83,41.41,45.3,42.58"/>
				</defs>
				<use xlink:href="#SVGID_00000076565606043675304240000017347056849747096503_"  style="overflow:visible;fill:#FAE100;"/>
				<clipPath id="SVGID_00000065767116026979634370000009846445904032112559_">
					<use xlink:href="#SVGID_00000076565606043675304240000017347056849747096503_"  style="overflow:visible;"/>
				</clipPath>
				
					<rect x="36.34" y="40.94" style="clip-path:url(#SVGID_00000065767116026979634370000009846445904032112559_);fill:#FAE100;" width="24.48" height="27.1"/>
			</g>
			<g>
				<defs>
					<path id="SVGID_00000069388948488823709670000014238866858229515666_" d="M48.7,47.03l3.03,9.5h-6.32L48.7,47.03z M45.3,42.58
						c-1.34,2.95-6.19,16.9-7.79,20.6c-1.16,2.67,3.85,4.86,5.01,2.18l1.09-3.81h9.97c0,0-0.34,0.16,0.98,3.65
						c1.07,2.83,6.25,0.87,5.18-1.96c-1.53-4.04-6.83-18.6-7.8-20.66c-0.44-0.95-2.04-1.64-3.59-1.64
						C47.08,40.94,45.83,41.41,45.3,42.58"/>
				</defs>
				<clipPath id="SVGID_00000045613839630811584400000016532185902426540937_">
					<use xlink:href="#SVGID_00000069388948488823709670000014238866858229515666_"  style="overflow:visible;"/>
				</clipPath>
			</g>
		</g>
		<g>
			<g>
				<defs>
					<path id="SVGID_00000096051879404585213010000009966204069515692686_" d="M61.65,43.45c0.01,4.74,0.03,20.02,0.03,20.02
						s-0.44,3.04,2.17,3.04c2.6,0,8.38-0.03,10.94-0.03c2.56,0,2.55-5.45-0.01-5.45c-2.56,0-7.24-0.03-7.24-0.03
						s0.02-14.13,0.01-17.57c0-1.66-1.48-2.49-2.95-2.49C63.13,40.95,61.65,41.78,61.65,43.45"/>
				</defs>
				<clipPath id="SVGID_00000133521046831397385960000016870739818799837107_">
					<use xlink:href="#SVGID_00000096051879404585213010000009966204069515692686_"  style="overflow:visible;"/>
				</clipPath>
			</g>
			<g>
				<defs>
					<path id="SVGID_00000101071169509225284810000005201604609424495015_" d="M61.65,43.45c0.01,4.74,0.03,20.02,0.03,20.02
						s-0.44,3.04,2.17,3.04c2.6,0,8.38-0.03,10.94-0.03c2.56,0,2.55-5.45-0.01-5.45c-2.56,0-7.24-0.03-7.24-0.03
						s0.02-14.13,0.01-17.57c0-1.66-1.48-2.49-2.95-2.49C63.13,40.95,61.65,41.78,61.65,43.45"/>
				</defs>
				<use xlink:href="#SVGID_00000101071169509225284810000005201604609424495015_"  style="overflow:visible;fill:#FAE100;"/>
				<clipPath id="SVGID_00000142876506444880366010000013671568229400478355_">
					<use xlink:href="#SVGID_00000101071169509225284810000005201604609424495015_"  style="overflow:visible;"/>
				</clipPath>
				
					<rect x="61.24" y="40.95" style="clip-path:url(#SVGID_00000142876506444880366010000013671568229400478355_);fill:#FAE100;" width="16.11" height="25.56"/>
			</g>
			<g>
				<defs>
					<path id="SVGID_00000020374425054889985120000009928686764300268459_" d="M61.65,43.45c0.01,4.74,0.03,20.02,0.03,20.02
						s-0.44,3.04,2.17,3.04c2.6,0,8.38-0.03,10.94-0.03c2.56,0,2.55-5.45-0.01-5.45c-2.56,0-7.24-0.03-7.24-0.03
						s0.02-14.13,0.01-17.57c0-1.66-1.48-2.49-2.95-2.49C63.13,40.95,61.65,41.78,61.65,43.45"/>
				</defs>
				<clipPath id="SVGID_00000008111089409733066390000016544671968413801901_">
					<use xlink:href="#SVGID_00000020374425054889985120000009928686764300268459_"  style="overflow:visible;"/>
				</clipPath>
			</g>
		</g>
		<g>
			<g>
				<defs>
					<path id="SVGID_00000173133391623866467600000012542000140718027433_" d="M78.04,42.7c0.06,2.08-0.07,20.88-0.07,22.27
						c0,2.2,5.6,2.19,5.6,0c0-2.55,0-7.4,0-7.4l1.64-1.32l7.19,9.8c1.45,1.92,6.02-1.55,4.57-3.46l-7.63-10.05
						c0,0,5.18-5.6,7.22-7.63c1.19-1.18-2.5-4.9-3.69-3.71c-1.15,1.14-9.27,9.27-9.27,9.27s0.07-5.1,0-7.92
						c-0.03-1.07-1.34-1.59-2.69-1.59C79.48,40.96,78.01,41.55,78.04,42.7"/>
				</defs>
				<clipPath id="SVGID_00000084495920513665780690000008298199474805439115_">
					<use xlink:href="#SVGID_00000173133391623866467600000012542000140718027433_"  style="overflow:visible;"/>
				</clipPath>
			</g>
			<g>
				<defs>
					<path id="SVGID_00000168117674667423894590000007391848631710377635_" d="M78.04,42.7c0.06,2.08-0.07,20.88-0.07,22.27
						c0,2.2,5.6,2.19,5.6,0c0-2.55,0-7.4,0-7.4l1.64-1.32l7.19,9.8c1.45,1.92,6.02-1.55,4.57-3.46l-7.63-10.05
						c0,0,5.18-5.6,7.22-7.63c1.19-1.18-2.5-4.9-3.69-3.71c-1.15,1.14-9.27,9.27-9.27,9.27s0.07-5.1,0-7.92
						c-0.03-1.07-1.34-1.59-2.69-1.59C79.48,40.96,78.01,41.55,78.04,42.7"/>
				</defs>
				<use xlink:href="#SVGID_00000168117674667423894590000007391848631710377635_"  style="overflow:visible;fill:#FAE100;"/>
				<clipPath id="SVGID_00000131326242867905243970000016410615702580148668_">
					<use xlink:href="#SVGID_00000168117674667423894590000007391848631710377635_"  style="overflow:visible;"/>
				</clipPath>
				
					<rect x="77.97" y="40.01" style="clip-path:url(#SVGID_00000131326242867905243970000016410615702580148668_);fill:#FAE100;" width="20.45" height="27.96"/>
			</g>
			<g>
				<defs>
					<path id="SVGID_00000085950024170096310700000013150387590446547120_" d="M78.04,42.7c0.06,2.08-0.07,20.88-0.07,22.27
						c0,2.2,5.6,2.19,5.6,0c0-2.55,0-7.4,0-7.4l1.64-1.32l7.19,9.8c1.45,1.92,6.02-1.55,4.57-3.46l-7.63-10.05
						c0,0,5.18-5.6,7.22-7.63c1.19-1.18-2.5-4.9-3.69-3.71c-1.15,1.14-9.27,9.27-9.27,9.27s0.07-5.1,0-7.92
						c-0.03-1.07-1.34-1.59-2.69-1.59C79.48,40.96,78.01,41.55,78.04,42.7"/>
				</defs>
				<clipPath id="SVGID_00000040561044756952048300000002277549328082512318_">
					<use xlink:href="#SVGID_00000085950024170096310700000013150387590446547120_"  style="overflow:visible;"/>
				</clipPath>
			</g>
		</g>
	</g>
</g>
</svg>
