<?xml version="1.0" encoding="utf-8"?>
<svg xmlns="http://www.w3.org/2000/svg" width="145" height="29" viewBox="0 0 145 29" fill="none">
<path d="M9.94307 3.74414V19.3765C9.94307 21.5762 8.97752 22.7207 7.2531 22.7207C5.62233 22.7207 4.56313 21.6688 4.53407 19.9025H0.000201848C-0.0288614 24.3282 3.08414 26.465 7.0432 26.465C11.3349 26.465 14.2735 23.8817 14.4317 19.7272L9.9689 3.74414H9.94307Z" fill="url(#paint0_linear_1479_701)"/>
<path d="M41.1924 10.6866L38.2667 4.2729L38.0342 3.76351L36.8458 1.15039L28.4175 7.1771L32.3959 8.26865L32.4605 8.2885L29.8416 19.4389H29.6575L25.6403 3.74366H21.3777L17.3573 19.4091H17.1764L13.4886 3.74366H13.2464H13.0107H9.96875L14.79 26.1569H19.2302L23.4315 11.3581H23.6156L27.7845 26.1569H32.228L36.8749 9.50244L41.1924 10.6866Z" fill="url(#paint1_linear_1479_701)"/>
<path d="M51.396 22.0185L49.1904 13.9046H49.1097L49.0451 22.0185H46.0322L46.7911 9.50195H50.1657L52.7523 18.1881H52.833L55.4358 9.50195H58.8104L59.5692 22.0185H56.5564L56.4918 13.9046H56.411L54.2055 22.0185H51.4057H51.396Z" fill="#131368"/>
<path d="M71.8468 22.0185H68.6531L67.7812 19.7427H64.0611L63.2538 22.0185H60.0762L64.6036 9.50195H67.1902L71.85 22.0185H71.8468ZM65.9534 13.1636L64.849 17.0436H66.99L65.9534 13.1636Z" fill="#131368"/>
<path d="M80.5565 17.1594L82.6136 22.0185H79.4198L77.6922 17.8176H75.6836V22.0185H72.7676V9.50195H77.4274C79.0969 9.50195 80.3725 9.85919 81.2573 10.5737C82.1421 11.2881 82.5813 12.3367 82.5813 13.7193C82.5813 14.4603 82.4004 15.135 82.0388 15.7437C81.6771 16.3523 81.183 16.822 80.5565 17.1594ZM75.6836 15.1516H77.8892C78.5156 15.1516 78.9774 15.006 79.281 14.7116C79.5813 14.4206 79.7331 14.0666 79.7331 13.6499C79.7331 13.2 79.5781 12.8461 79.2648 12.5881C78.9516 12.3301 78.506 12.2011 77.9215 12.2011H75.6836V15.1516Z" fill="#131368"/>
<path d="M86.6657 19.488V22.0185H83.7852V9.50195H86.6657V15.0854L90.5666 9.50195H93.7603L90.1048 14.8142L93.8927 22.0151H90.7636L88.2125 17.3446L86.6657 19.488Z" fill="#131368"/>
<path d="M104.136 12.168H97.6972V14.4437L103.823 14.4272V17.0403H97.6972V19.3524H101.598C101.895 19.3524 102.16 19.3524 102.396 19.3425C102.631 19.3359 102.854 19.3226 103.064 19.2995C103.261 19.2896 103.455 19.273 103.639 19.2499C103.826 19.2267 104.017 19.2003 104.217 19.1672V21.7803C103.855 21.8828 103.381 21.9457 102.793 21.9754C102.205 22.0019 101.682 22.0185 101.22 22.0185H94.8135V9.50195H104.133V12.168H104.136Z" fill="#131368"/>
<path d="M105.141 9.50195H114.444V12.2672H111.218V22.0151H108.286V12.2672H105.141V9.50195Z" fill="#131368"/>
<path d="M115.532 9.50195H118.464V22.0185H115.532V9.50195Z" fill="#131368"/>
<path d="M123.024 14.2419V22.0185H120.127V9.50195H122.975L127.273 17.0238V9.50195H130.17V22.0185H127.47L123.024 14.2419Z" fill="#131368"/>
<path d="M138.502 19.1339C138.712 18.9884 138.88 18.7502 139.012 18.4261C139.145 18.0986 139.209 17.7678 139.209 17.4304H136.69V14.8504H142.274V16.0809C142.251 16.4646 142.229 16.8284 142.209 17.1757C142.187 17.5231 142.148 17.8604 142.093 18.1879C142.048 18.5154 141.973 18.8296 141.87 19.1339C141.767 19.4382 141.621 19.7425 141.434 20.0435C141.04 20.7283 140.562 21.241 140 21.5783C139.442 21.9157 138.873 22.1407 138.305 22.2531C137.985 22.3193 137.64 22.359 137.268 22.3722C136.894 22.3821 136.522 22.3656 136.148 22.3226C135.764 22.2664 135.395 22.1837 135.043 22.0778C134.691 21.972 134.378 21.833 134.104 21.6643C133.203 21.0921 132.531 20.3214 132.085 19.3522C131.64 18.3864 131.417 17.1923 131.417 15.7766C131.417 14.3608 131.666 13.1998 132.156 12.2274C132.651 11.2549 133.348 10.4809 134.249 9.90863C134.514 9.73993 134.814 9.60101 135.153 9.49516C135.492 9.38931 135.844 9.31323 136.206 9.26693C136.568 9.22392 136.929 9.20408 137.294 9.20739C137.656 9.214 137.998 9.25039 138.315 9.31654C138.841 9.429 139.364 9.64732 139.887 9.97478C140.407 10.3022 140.956 10.7786 141.525 11.407L139.745 13.2958C139.196 12.6871 138.638 12.2935 138.066 12.1149C137.494 11.9363 136.929 11.9396 136.371 12.1314C135.68 12.3663 135.156 12.7963 134.808 13.4148C134.456 14.0334 134.281 14.8206 134.281 15.7766C134.281 16.7325 134.462 17.5727 134.824 18.2309C135.186 18.8891 135.663 19.3026 136.258 19.4713C136.587 19.5739 136.962 19.6003 137.385 19.554C137.808 19.5077 138.179 19.3688 138.496 19.1306L138.502 19.1339Z" fill="#131368"/>
<defs>
<linearGradient id="paint0_linear_1479_701" x1="0.000201848" y1="15.1062" x2="14.4317" y2="15.1062" gradientUnits="userSpaceOnUse">
<stop stop-color="#0E29FF"/>
<stop offset="1" stop-color="#0ECEFF"/>
</linearGradient>
<linearGradient id="paint1_linear_1479_701" x1="9.96875" y1="13.6537" x2="41.1924" y2="13.6537" gradientUnits="userSpaceOnUse">
<stop stop-color="#0E29FF"/>
<stop offset="1" stop-color="#0ECEFF"/>
</linearGradient>
</defs>
</svg>