<svg width="150" height="73" viewBox="0 0 150 73" fill="none" xmlns="http://www.w3.org/2000/svg">
<g clip-path="url(#clip0_1237_191)">
<path d="M5.23734 57.709H8.79022V67.5854C8.79022 68.6264 8.70726 69.4656 8.53773 70.0996C8.3682 70.7335 8.04718 71.3134 7.56384 71.8321C7.12379 72.3111 6.52864 72.6317 5.78921 72.7938C5.04617 72.9559 4.33559 72.9955 3.65387 72.9127C3.17415 72.8586 2.5826 72.6497 1.88645 72.2823C1.1903 71.9149 0.562689 71.371 0 70.6507L2.12812 68.1257C2.50325 68.5652 2.85312 68.8785 3.18136 69.0586C3.50959 69.2387 3.83422 69.3144 4.15524 69.2891C4.43659 69.2747 4.68547 69.1343 4.9091 68.8677C5.12913 68.6012 5.24095 68.1725 5.24095 67.5854V57.709H5.23734Z" fill="#131368"/>
<path d="M20.2463 57.709L22.1724 68.0069H22.2337L22.9948 57.709H26.7064L24.6396 72.5777H20.5853L18.3779 62.179H18.2372L16.0117 72.5777H12.1594L9.89062 57.709H13.6022L14.3849 68.0069H14.4462L16.3543 57.709H20.2463Z" fill="#131368"/>
<path d="M39.266 72.5738L36.5788 62.9351H36.4778L36.3985 72.5738H32.7266L33.6499 57.7051H37.7619L40.9108 68.0246H41.0118L44.1823 57.7051H48.2943L49.2177 72.5738H45.5458L45.4664 62.9351H45.3654L42.6782 72.5738H39.266Z" fill="#131368"/>
<path d="M64.1865 72.5738H60.2945L59.2305 69.8687H54.6965L53.7118 72.5738H49.8379L55.3566 57.7051H58.5055L64.1829 72.5738H64.1865ZM57.0014 62.0562L55.656 66.663H58.2638L57.0014 62.0562Z" fill="#131368"/>
<path d="M74.8012 66.8035L77.3081 72.5738H73.4161L71.3096 67.5851H68.8605V72.5738H65.3076V57.7051H70.985C73.0193 57.7051 74.574 58.1301 75.6488 58.9766C76.7273 59.8266 77.2648 61.0693 77.2648 62.7153C77.2648 63.5978 77.0447 64.3974 76.6011 65.1178C76.161 65.8382 75.5587 66.4001 74.794 66.7999L74.8012 66.8035ZM68.8605 64.419H71.5477C72.3088 64.419 72.8751 64.2462 73.243 63.8968C73.6109 63.551 73.7948 63.1296 73.7948 62.6361C73.7948 62.103 73.6037 61.6816 73.2249 61.3754C72.8426 61.0693 72.2979 60.9144 71.591 60.9144H68.8605V64.4226V64.419Z" fill="#131368"/>
<path d="M82.2427 69.5698V72.5738H78.7295V57.7051H82.2427V64.3362L86.9967 57.7051H90.8886L86.434 64.0156L91.0473 72.5702H87.2348L84.1255 67.0196L82.2391 69.5626L82.2427 69.5698Z" fill="#131368"/>
<path d="M103.532 60.8725H95.6864V63.5775L103.149 63.5559V66.6608H95.6864V69.4054H100.44C100.801 69.4054 101.126 69.4054 101.414 69.3946C101.703 69.3874 101.973 69.373 102.226 69.3442C102.467 69.3298 102.702 69.3118 102.929 69.283C103.156 69.2578 103.391 69.2217 103.633 69.1821V72.287C103.192 72.4058 102.612 72.4851 101.898 72.5175C101.183 72.5499 100.545 72.5679 99.9823 72.5679H92.1768V57.6992H103.535V60.8653L103.532 60.8725Z" fill="#131368"/>
<path d="M104.758 57.709H116.095V60.9939H112.163V72.5741H108.592V60.9939H104.761V57.709H104.758Z" fill="#131368"/>
<path d="M117.418 57.709H120.989V72.5777H117.418V57.709Z" fill="#131368"/>
<path d="M126.548 63.3385V72.5738H123.017V57.7051H126.487L131.724 66.6414V57.7051H135.255V72.5738H131.966L126.548 63.3385Z" fill="#131368"/>
<path d="M145.409 69.1488C145.661 68.9759 145.87 68.695 146.029 68.306C146.188 67.917 146.271 67.5244 146.271 67.1245H143.201V64.0593H150.004V65.5217C149.979 65.9755 149.95 66.4114 149.925 66.8256C149.899 67.2398 149.853 67.6396 149.784 68.0286C149.73 68.4176 149.64 68.7886 149.514 69.1524C149.387 69.5126 149.211 69.8728 148.983 70.233C148.504 71.047 147.919 71.6558 147.238 72.0556C146.556 72.4554 145.867 72.7255 145.171 72.8588C144.781 72.938 144.363 72.9849 143.908 72.9993C143.454 73.0137 142.999 72.9921 142.545 72.938C142.076 72.8696 141.629 72.776 141.199 72.6463C140.77 72.5202 140.391 72.3545 140.056 72.1564C138.959 71.4757 138.141 70.5608 137.6 69.4118C137.059 68.2628 136.788 66.8472 136.788 65.1651C136.788 63.483 137.087 62.1035 137.69 60.9473C138.292 59.7911 139.14 58.8726 140.24 58.1918C140.561 57.9901 140.929 57.828 141.344 57.7019C141.758 57.5759 142.188 57.4858 142.628 57.4318C143.068 57.3778 143.511 57.3562 143.952 57.3598C144.392 57.367 144.806 57.4102 145.196 57.4894C145.838 57.6227 146.476 57.882 147.111 58.271C147.746 58.66 148.413 59.2255 149.11 59.9747L146.942 62.2187C146.274 61.4984 145.589 61.0301 144.897 60.8176C144.2 60.6051 143.512 60.6123 142.83 60.8392C141.986 61.1202 141.351 61.628 140.922 62.3628C140.492 63.0976 140.28 64.0341 140.28 65.1687C140.28 66.3033 140.5 67.301 140.943 68.0827C141.383 68.8643 141.968 69.3541 142.689 69.5558C143.089 69.6747 143.548 69.7107 144.063 69.6567C144.579 69.6027 145.03 69.437 145.416 69.156L145.409 69.1488Z" fill="#131368"/>
<path d="M56.2872 4.40234V30.9449C56.2872 34.6764 54.6027 36.6215 51.6017 36.6215C48.7594 36.6215 46.9163 34.8349 46.8658 31.8381H38.9701C38.9196 39.3553 44.3409 42.9824 51.2338 42.9824C58.7075 42.9824 63.8258 38.5989 64.1035 31.5392L56.3341 4.40234H56.2872Z" fill="url(#paint0_linear_1237_191)"/>
<path d="M110.706 16.1942L105.613 5.30202L105.209 4.43396L103.135 0L88.4614 10.2294L95.3868 12.088L95.4986 12.1168L90.9358 31.0485H90.6184L83.6208 4.40154H76.1976L69.2001 30.9981H68.8827L62.4623 4.40154H62.0402H61.6254H56.334L64.7238 42.4558H72.4608L79.7794 17.3324H80.0932L87.3577 42.4558H95.0946L103.189 14.1771L110.706 16.1942Z" fill="url(#paint1_linear_1237_191)"/>
</g>
<defs>
<linearGradient id="paint0_linear_1237_191" x1="38.9701" y1="23.6942" x2="64.1035" y2="23.6942" gradientUnits="userSpaceOnUse">
<stop stop-color="#0E29FF"/>
<stop offset="1" stop-color="#0ECEFF"/>
</linearGradient>
<linearGradient id="paint1_linear_1237_191" x1="56.334" y1="21.2261" x2="110.706" y2="21.2261" gradientUnits="userSpaceOnUse">
<stop stop-color="#0E29FF"/>
<stop offset="1" stop-color="#0ECEFF"/>
</linearGradient>
<clipPath id="clip0_1237_191">
<rect width="150" height="73" fill="white"/>
</clipPath>
</defs>
</svg>
