<svg width="32" height="32" viewBox="0 0 32 32" fill="none" xmlns="http://www.w3.org/2000/svg">
<path d="M8.07002 8.84375V19.9592C8.07002 21.5232 7.38347 22.337 6.15732 22.337C4.99776 22.337 4.24462 21.5891 4.22395 20.3331H1.00014C0.979478 23.4801 3.19298 24.9994 6.00807 24.9994C9.05966 24.9994 11.1492 23.1626 11.2617 20.2085L8.08839 8.84375H8.07002Z" fill="url(#paint0_linear_1237_189)"/>
<path d="M30.2904 13.7807L28.2101 9.22026L28.0448 8.85806L27.1998 7L21.2068 11.2853L24.0357 12.0614L24.0816 12.0756L22.2194 20.0041H22.0886L19.2321 8.84395H16.2012L13.3425 19.9829H13.2139L10.5917 8.84395H10.4195H10.2518H8.08887L11.517 24.7809H14.6743L17.6616 14.2582H17.7924L20.7568 24.7809H23.9163L27.2205 12.9387L30.2904 13.7807Z" fill="url(#paint1_linear_1237_189)"/>
<defs>
<linearGradient id="paint0_linear_1237_189" x1="1.00014" y1="16.9228" x2="11.2617" y2="16.9228" gradientUnits="userSpaceOnUse">
<stop stop-color="#0E29FF"/>
<stop offset="1" stop-color="#0ECEFF"/>
</linearGradient>
<linearGradient id="paint1_linear_1237_189" x1="8.08887" y1="15.8905" x2="30.2904" y2="15.8905" gradientUnits="userSpaceOnUse">
<stop stop-color="#0E29FF"/>
<stop offset="1" stop-color="#0ECEFF"/>
</linearGradient>
</defs>
</svg>
