<svg width="27" height="27" viewBox="0 0 27 27" fill="none" xmlns="http://www.w3.org/2000/svg">
<path d="M13.5 18.8438C13.05 18.8438 12.6 18.81 12.1725 18.7312C9.7875 18.3825 7.61625 17.01 6.24375 14.9737C5.2875 13.5337 4.78125 11.8575 4.78125 10.125C4.78125 5.32125 8.69625 1.40625 13.5 1.40625C18.3037 1.40625 22.2188 5.32125 22.2188 10.125C22.2188 11.8575 21.7125 13.5337 20.7563 14.9737C19.3725 17.0212 17.2012 18.3825 14.7937 18.7425C14.4 18.81 13.95 18.8438 13.5 18.8438ZM13.5 3.09375C9.61875 3.09375 6.46875 6.24375 6.46875 10.125C6.46875 11.5312 6.87375 12.8813 7.63875 14.0288C8.7525 15.6713 10.4963 16.7738 12.4313 17.055C13.1513 17.1788 13.86 17.1788 14.5237 17.055C16.4925 16.7738 18.2363 15.66 19.35 14.0175C20.115 12.87 20.52 11.52 20.52 10.1137C20.5312 6.24374 17.3813 3.09375 13.5 3.09375Z" fill="#2F83DB"/>
<path d="M7.27824 25.4135C7.12074 25.4135 6.97449 25.391 6.81699 25.3572C6.08574 25.1885 5.52324 24.626 5.35449 23.8947L4.96074 22.241C4.93824 22.1397 4.85949 22.061 4.74699 22.0272L2.89074 21.5885C2.19324 21.4197 1.64199 20.9022 1.45074 20.216C1.25949 19.5297 1.45074 18.7872 1.95699 18.281L6.34449 13.8935C6.52449 13.7135 6.77199 13.6235 7.01949 13.646C7.26699 13.6685 7.49199 13.8035 7.63824 14.0172C8.75199 15.6597 10.4957 16.7735 12.442 17.0547C13.162 17.1785 13.8707 17.1785 14.5345 17.0547C16.5032 16.7735 18.247 15.6597 19.3607 14.0172C19.4957 13.8035 19.732 13.6685 19.9795 13.646C20.227 13.6235 20.4745 13.7135 20.6545 13.8935L25.042 18.281C25.5482 18.7872 25.7395 19.5297 25.5482 20.216C25.357 20.9022 24.7945 21.431 24.1082 21.5885L22.252 22.0272C22.1507 22.0497 22.072 22.1285 22.0382 22.241L21.6445 23.8947C21.4757 24.626 20.9132 25.1885 20.182 25.3572C19.4507 25.5372 18.697 25.2785 18.2245 24.7047L13.4995 19.271L8.77449 24.716C8.39199 25.166 7.85199 25.4135 7.27824 25.4135ZM6.85074 15.7835L3.14949 19.4847C3.04824 19.586 3.05949 19.6985 3.08199 19.766C3.09324 19.8222 3.14949 19.9347 3.28449 19.9572L5.14074 20.396C5.87199 20.5647 6.43449 21.1272 6.60324 21.8585L6.99699 23.5122C7.03074 23.6585 7.14324 23.7035 7.21074 23.726C7.27824 23.7372 7.39074 23.7485 7.49199 23.636L11.8007 18.6747C9.88824 18.3035 8.13324 17.2797 6.85074 15.7835ZM15.1982 18.6635L19.507 23.6135C19.6082 23.7372 19.732 23.7372 19.7995 23.7147C19.867 23.7035 19.9682 23.6472 20.0132 23.501L20.407 21.8472C20.5757 21.116 21.1382 20.5535 21.8695 20.3847L23.7257 19.946C23.8607 19.9122 23.917 19.811 23.9282 19.7547C23.9507 19.6985 23.962 19.5747 23.8607 19.4735L20.1595 15.7722C18.8657 17.2685 17.122 18.2922 15.1982 18.6635Z" fill="#2F83DB"/>
<path d="M15.6265 14.5008C15.334 14.5008 14.9853 14.422 14.569 14.1745L13.5003 13.5333L12.4315 14.1633C11.4528 14.7483 10.8115 14.4108 10.5753 14.242C10.339 14.0733 9.83278 13.5671 10.0915 12.4533L10.3615 11.2946L9.46153 10.462C8.96653 9.96703 8.78653 9.3708 8.95528 8.8308C9.12403 8.2908 9.61903 7.90828 10.3165 7.79578L11.5203 7.59329L12.094 6.3333C12.4203 5.69205 12.9265 5.33203 13.5003 5.33203C14.074 5.33203 14.5915 5.70331 14.9065 6.34456L15.5703 7.67205L16.684 7.80704C17.3703 7.91954 17.8653 8.30203 18.0453 8.84203C18.214 9.38203 18.034 9.97829 17.539 10.4733L16.6053 11.4071L16.8978 12.4533C17.1565 13.5671 16.6503 14.0733 16.414 14.242C16.2903 14.3433 16.0203 14.5008 15.6265 14.5008ZM10.8115 9.43831L11.5878 10.2145C11.9478 10.5745 12.1278 11.182 12.0153 11.677L11.8015 12.577L12.7015 12.0483C13.1853 11.767 13.8378 11.767 14.3103 12.0483L15.2103 12.577L15.0078 11.677C14.8953 11.1708 15.064 10.5745 15.424 10.2145L16.2003 9.43831L15.2215 9.26953C14.749 9.19078 14.2765 8.84205 14.0628 8.41455L13.5003 7.31204L12.9378 8.43704C12.7353 8.85329 12.2628 9.2133 11.7903 9.29205L10.8115 9.43831Z" fill="#2F83DB"/>
</svg>
