<?xml version="1.0" encoding="utf-8"?>
<svg xmlns="http://www.w3.org/2000/svg" width="248" height="185" viewBox="0 0 248 185" fill="none">
<g id="Frame" clip-path="url(#clip0_29_823)">
<g id="Group">
<path id="Vector" d="M73.9729 150.057L69.7373 184.934H99.0197L101.254 172.421L102.855 185H132.371L123.666 137.344L73.9729 150.057Z" fill="white"/>
<g id="Group_2">
<path id="Vector_2" d="M18.8436 45.1603C21.2449 44.2951 27.1147 39.4363 27.1814 37.5061C27.2482 35.5759 25.2137 34.3778 25.2137 34.3778C25.2137 34.3778 26.7145 32.7471 26.3477 31.5491C26.0142 30.3843 22.0787 27.3559 20.8447 26.89C20.2444 26.657 19.0437 25.5588 18.0766 25.825C17.1094 26.0913 16.1088 26.9565 16.1088 26.9565C16.1088 26.9565 14.3746 26.0247 13.3073 26.3908C12.2401 26.7568 11.373 28.2544 11.373 28.2544C9.33852 28.3875 8.37134 29.9849 8.00447 30.5507C8.00447 30.5507 7.03729 30.7836 5.73659 31.782C4.40254 32.7804 5.33637 36.5743 5.26967 37.4395C5.20297 38.3048 5.40307 46.5913 5.20297 47.6896C5.00286 48.7878 5.70324 56.4088 5.70324 56.4088L5.80329 56.4753L7.63761 87.6914L22.6123 84.2969L16.8426 55.1774H16.8092L17.6096 45.7926L18.8436 45.1603Z" fill="#FCDFD4"/>
<path id="Vector_3" d="M11.2394 36.6743C11.2394 36.6743 9.6719 36.6077 10.3056 37.4064C10.8058 38.0054 11.9731 40.1686 13.4406 40.1353C14.9414 40.102 15.6751 39.7027 15.6418 38.6045C15.6084 37.5062 15.4083 34.7441 14.9748 34.0452C14.5412 33.313 10.1055 31.5825 10.1055 31.5825" stroke="#EEA892" stroke-miterlimit="10" stroke-linecap="round" stroke-linejoin="round"/>
<path id="Vector_4" d="M15.1084 39.902C15.2418 40.5343 16.2757 40.1683 17.7431 39.5027C18.777 39.0368 20.4446 35.2429 19.9443 34.3444C18.9771 32.6139 15.4419 30.484 14.6748 30.0181" stroke="#EEA892" stroke-miterlimit="10" stroke-linecap="round" stroke-linejoin="round"/>
<path id="Vector_5" d="M18.2436 39.0034C18.2436 39.0034 19.4442 39.3362 20.4114 38.5375C21.0117 38.0383 24.4802 34.9766 23.8132 33.113C23.1462 31.2493 17.2764 27.9214 17.2764 27.9214" stroke="#EEA892" stroke-miterlimit="10" stroke-linecap="round" stroke-linejoin="round"/>
<path id="Vector_6" d="M12.6737 28.8867L11.373 28.2544" stroke="#EEA892" stroke-miterlimit="10" stroke-linecap="round" stroke-linejoin="round"/>
<path id="Vector_7" d="M16.7087 27.3892L16.1084 26.9565" stroke="#EEA892" stroke-miterlimit="10" stroke-linecap="round" stroke-linejoin="round"/>
<path id="Vector_8" d="M8.00488 30.5508L8.80531 30.8503" stroke="#EEA892" stroke-miterlimit="10" stroke-linecap="round" stroke-linejoin="round"/>
<path id="Vector_9" d="M11.6397 38.3715C11.6397 38.3715 10.9727 37.0403 11.2729 36.6742L8.10449 36.5078" stroke="#EEA892" stroke-miterlimit="10" stroke-linecap="round" stroke-linejoin="round"/>
<path id="Vector_10" d="M25.7142 38.8374C25.7142 38.9705 21.0116 43.1637 19.2774 41.2002C18.3102 40.102 19.0439 39.0704 19.0439 39.0704" stroke="#EEA892" stroke-miterlimit="10" stroke-linecap="round" stroke-linejoin="round"/>
<path id="Vector_11" d="M8.4047 48.2886C8.4047 48.2886 6.20351 46.7578 5.23633 44.8608" stroke="#EEA892" stroke-miterlimit="10" stroke-linecap="round" stroke-linejoin="round"/>
<path id="Vector_12" d="M8.10449 37.6723C8.10449 37.6723 9.70535 37.4393 10.0722 36.6406" stroke="#EEA892" stroke-miterlimit="10" stroke-linecap="round" stroke-linejoin="round"/>
<path id="Vector_13" d="M13.8073 46.9574C13.8073 46.9574 14.5077 45.6262 14.2075 44.3616C13.9074 43.097 12.7734 39.9688 12.7734 39.9688" stroke="#EEA892" stroke-miterlimit="10" stroke-linecap="round" stroke-linejoin="round"/>
</g>
<path id="Vector_14" d="M2.36794 69.8536L0 77.2083L3.16837 82.6994L24.0463 76.809L24.7133 68.2895L20.7778 65.1279L2.36794 69.8536Z" fill="#EFEFEF"/>
<path id="Vector_15" d="M153.316 71.3842L133.905 58.6715C122.933 51.4832 109.792 48.2218 96.7188 49.4864L87.8807 49.9523L73.7064 52.182L59.9324 53.846C59.9324 53.846 54.5294 54.8111 45.091 61.8996C35.786 68.855 27.0147 83.032 27.0147 83.032L23.4794 75.0782L3.26855 81.5677L8.27124 99.8381C9.63865 105.729 14.2411 110.354 20.1443 111.819C25.4471 113.117 31.0835 111.652 35.0523 107.925L50.6607 93.282L71.6386 150.423L123.333 142.802L112.26 79.6042L146.779 91.252L153.316 71.3842Z" fill="#EFEFEF"/>
<g id="Group_3">
<g id="Group_4">
<g id="Group_5">
<g id="Group_6">
<g id="Group_7">
<g id="Group_8">
<path id="Vector_16" d="M90.0823 25.6917C89.6487 9.55119 80.5438 5.0252 70.6385 5.72407C60.6998 6.42293 52.5621 12.147 54.1629 28.1876C54.93 36.0083 58.9322 42.5976 64.4351 45.8923L64.802 55.3103L83.7122 54.2454L82.9117 44.0952C87.5142 40.0018 90.2824 33.1795 90.0823 25.6917Z" fill="#FFDDCF"/>
</g>
<path id="Vector_17" d="M67.7033 26.9228C67.8033 28.1541 67.3031 29.2191 66.636 29.2523C65.969 29.2856 65.3353 28.3205 65.2686 27.0892C65.1686 25.8578 65.6688 24.7929 66.3359 24.7596C66.9695 24.7263 67.6032 25.6914 67.7033 26.9228Z" fill="#3F362E"/>
<path id="Vector_18" d="M78.0753 26.3241C78.1754 27.5555 77.6751 28.6204 77.0081 28.6537C76.3411 28.687 75.7074 27.7219 75.6407 26.4905C75.5406 25.2592 76.0409 24.1942 76.7079 24.161C77.3416 24.0944 77.9753 25.0595 78.0753 26.3241Z" fill="#3F362E"/>
<path id="Vector_19" d="M71.5054 26.7231C71.5054 26.7231 70.8384 30.7167 71.8056 31.1826" stroke="#EA665C" stroke-width="2" stroke-miterlimit="10" stroke-linecap="round" stroke-linejoin="round"/>
<path id="Vector_20" d="M66.8027 33.6121C69.9044 35.4092 73.7398 35.2761 76.7081 33.246L77.3084 32.8467" stroke="#EA665C" stroke-width="2" stroke-miterlimit="10" stroke-linecap="round" stroke-linejoin="round"/>
<g id="Group_9">
<g id="Group_10">
<path id="Vector_21" d="M55.2631 27.0895C55.2631 27.0895 52.5283 25.1926 50.2604 28.1212C48.0259 31.0165 52.2948 40.5011 57.2975 37.3063" fill="#FFDDCF"/>
<path id="Vector_22" d="M52.3283 28.4541C52.3283 28.4541 50.3939 29.6522 51.8614 32.7139" stroke="#EA665C" stroke-width="2" stroke-miterlimit="10" stroke-linecap="round" stroke-linejoin="round"/>
</g>
</g>
<g id="Group_11">
<g id="Group_12">
<path id="Vector_23" d="M87.8809 23.695C87.8809 23.695 90.1821 21.2989 92.9836 23.6617C95.7851 26.0245 93.5506 36.208 87.9809 34.1114" fill="#FFDDCF"/>
<path id="Vector_24" d="M91.0156 24.4272C91.0156 24.4272 93.1501 25.2259 92.3497 28.4873" stroke="#EA665C" stroke-width="2" stroke-miterlimit="10" stroke-linecap="round" stroke-linejoin="round"/>
</g>
</g>
</g>
</g>
<path id="Vector_25" d="M65.8018 46.4583C65.8018 46.4583 73.9395 48.7545 81.3101 44.8608C81.3101 44.8608 80.1094 59.7034 74.8066 60.1361C69.5037 60.5354 65.8018 46.4583 65.8018 46.4583Z" fill="#FFC3B8"/>
</g>
<path id="Vector_26" d="M61.7669 39.6025C64.2351 39.6025 66.236 37.6059 66.236 35.143C66.236 32.6802 64.2351 30.6836 61.7669 30.6836C59.2987 30.6836 57.2979 32.6802 57.2979 35.143C57.2979 37.6059 59.2987 39.6025 61.7669 39.6025Z" fill="url(#paint0_radial_29_823)"/>
<path id="Vector_27" d="M80.0094 30.8166C78.642 32.8467 79.1756 35.6421 81.21 37.0066C83.2445 38.371 86.046 37.8386 87.4134 35.8085C88.7808 33.7785 88.2472 30.983 86.2127 29.6186C84.1783 28.2208 81.4101 28.7533 80.0094 30.8166Z" fill="url(#paint1_radial_29_823)"/>
</g>
<path id="Vector_28" d="M61.4 3.8939C61.4 3.8939 54.7298 6.22346 52.9622 12.4134C51.4614 17.7048 52.562 24.0279 52.8288 25.9914C52.8621 26.3242 53.1289 26.6237 53.4958 26.6903C54.1628 26.8234 55.3301 27.2893 55.9971 28.7203C56.1639 29.0864 56.5308 29.3193 56.9643 29.2861C57.5313 29.2528 57.9649 28.687 57.8315 28.1213C57.5313 26.7568 57.1644 26.2909 58.4985 22.7633C59.7992 19.269 60.8664 16.3737 61.4667 14.7763C61.7002 14.1107 62.4673 13.7779 63.1343 14.0441C65.2688 14.9427 69.5378 16.4402 70.3048 14.5766C70.3048 14.5766 70.2381 11.7478 72.9396 13.2454C75.3409 14.5433 76.4081 15.6748 77.8422 14.2771C79.2763 12.8793 80.9439 18.5035 82.4447 17.8047C83.6787 17.2389 86.1467 22.0977 86.9471 24.6269C87.1139 25.1261 87.6141 25.4589 88.1478 25.4257H88.1811C88.7147 25.3924 89.1483 24.993 89.2483 24.4938C89.4151 23.6618 89.782 22.4971 90.449 22.6635C90.449 22.6635 92.2166 7.25512 80.4103 2.32977C80.4103 2.32977 81.5109 0.565968 75.4743 1.06516C72.6394 1.29811 69.9046 -2.86181 61.4 3.8939Z" fill="#3F362E"/>
</g>
<path id="Vector_29" d="M7.07031 79.7375C10.7723 75.1117 18.0095 70.2529 18.0095 70.2529" stroke="#D1D1D1" stroke-miterlimit="10" stroke-linecap="round" stroke-linejoin="round"/>
<path id="Vector_30" d="M7.7373 82.5665L20.8777 78.6729" stroke="#D1D1D1" stroke-miterlimit="10" stroke-linecap="round" stroke-linejoin="round"/>
<path id="Vector_31" d="M3.63574 84.6629C3.63574 84.6629 4.60293 94.2474 6.97087 99.6387C9.33881 105.063 14.575 114.515 24.6137 113.516C38.5212 112.118 51.0279 96.7434 51.0279 96.7434C51.0279 96.7434 59.0989 132.519 64.6352 144.599C68.5373 153.052 72.973 155.149 72.973 155.149C72.973 155.149 110.093 155.714 125.234 144.2C125.234 144.2 126.635 140.872 125.801 130.888C124.968 120.904 115.529 83.1654 115.529 83.1654L146.379 92.4503L153.616 70.5525C153.616 70.5525 127.769 49.886 108.025 49.3203C108.025 49.3203 97.3194 48.3552 88.8482 49.7529C88.8482 49.7529 88.2812 63.9632 73.0064 63.7635C63.2678 63.6304 59.5325 53.9128 59.5325 53.9128C59.5325 53.9128 45.8251 58.4055 37.0204 68.0565C31.4507 74.1467 26.8816 80.9689 26.8816 80.9689L25.0806 78.0404C25.0806 78.0404 22.0123 80.137 15.7756 82.3334C9.50557 84.4966 3.63574 84.6629 3.63574 84.6629Z" fill="#8F8FF9"/>
<path id="Vector_32" d="M58.4316 61.3343C58.4316 61.3343 63.1675 69.0884 77.742 66.7588C91.0492 64.5957 92.8835 53.314 92.8835 53.314" stroke="#6A6AEF" stroke-miterlimit="10"/>
<g id="Group_13">
<path id="Vector_33" d="M60.0986 53.8461L64.4009 49.8525L75.3735 59.8363L70.5709 70.7853L60.0986 53.8461Z" fill="#EFEFEF"/>
<path id="Vector_34" d="M83.7115 47.8892L75.2402 59.8365L85.8126 69.188L86.7798 50.1189L83.7115 47.8892Z" fill="#EFEFEF"/>
<path id="Vector_35" d="M86.846 52.1489L85.8121 69.188L75.5065 59.6701L70.4371 71.4177L62.166 56.3421" stroke="#D1D1D1" stroke-miterlimit="10" stroke-linecap="round" stroke-linejoin="round"/>
</g>
<path id="Vector_36" d="M73.1396 150.656C73.1396 150.656 105.124 150.223 122.5 138.875" stroke="#6A6AEF" stroke-miterlimit="10"/>
<path id="Vector_37" d="M25.0469 78.0068L30.2163 87.1587" stroke="#6A6AEF" stroke-miterlimit="10"/>
<path id="Vector_38" d="M49.9268 90.1875C49.9268 90.1875 51.5943 97.8085 52.8617 103.632" stroke="#6A6AEF" stroke-miterlimit="10"/>
<path id="Vector_39" d="M114.161 78.0068L122.366 111.819" stroke="#6A6AEF" stroke-miterlimit="10"/>
</g>
<g id="Group_14">
<g id="Group_15">
<path id="Vector_40" d="M185.3 171.921C185.3 171.921 195.238 177.346 202.676 176.647C210.113 175.981 218.017 170.79 218.017 170.79L208.546 170.058L185.3 171.921Z" fill="black"/>
<path id="Vector_41" d="M204.243 161.538L198.173 132.818C196.539 125.03 192.737 117.875 187.267 112.151C186.1 110.92 184.632 110.021 182.998 109.489L162.52 104.098L143.343 104.164L124.066 111.386L128.102 184.967L179.83 185L182.331 160.539L204.243 161.538Z" fill="black"/>
<path id="Vector_42" d="M176.261 174.949L144.444 165.798L180.13 154.849L176.261 174.949Z" fill="#C1C1C1"/>
<path id="Vector_43" d="M144.444 165.798L144.411 167.096L175.928 176.314L176.262 174.95L144.444 165.798Z" fill="#B4B4B5"/>
<path id="Vector_44" d="M124.067 111.386L121.732 112.484C117.197 114.647 113.461 118.208 111.093 122.634C109.226 126.095 108.292 129.989 108.325 133.949L108.692 171.222C108.925 173.552 109.826 175.781 111.227 177.678C114.929 182.604 121.566 184.234 127.135 181.638L154.617 168.626L148.146 155.847L127.969 156.313L124.067 111.386Z" fill="black"/>
<path id="Vector_45" d="M137.574 85.7275C137.574 85.7275 140.609 94.6131 143.911 95.9443L130.137 94.0141L133.072 86.3598L137.574 85.7275Z" fill="#3F362E"/>
<g id="Group_16">
<g id="Group_17">
<g id="Group_18">
<g id="Group_19">
<g id="Group_20">
<g id="Group_21">
<path id="Vector_46" d="M172.959 77.5406C173.96 60.0689 164.521 54.3449 153.749 54.1785C142.977 54.0121 133.638 59.5032 133.905 76.9748C134.038 85.4943 137.74 92.9822 143.41 97.0423L142.376 104.963L149.013 109.156H157.384L164.321 104.43L163.588 96.776C168.924 92.8158 172.526 85.694 172.959 77.5406Z" fill="#FFDDCF"/>
<path id="Vector_47" d="M148.68 76.8748C148.646 78.2392 148.046 79.3042 147.312 79.3042C146.579 79.3042 146.012 78.206 146.012 76.8415C146.045 75.477 146.645 74.4121 147.379 74.4121C148.113 74.4121 148.68 75.5436 148.68 76.8748Z" fill="#3F362E"/>
<path id="Vector_48" d="M159.952 77.1414C159.919 78.5058 159.319 79.5708 158.585 79.5708C157.851 79.5708 157.284 78.4726 157.284 77.1081C157.318 75.7437 157.918 74.6787 158.652 74.6787C159.385 74.6787 159.952 75.8102 159.952 77.1414Z" fill="#3F362E"/>
<path id="Vector_49" d="M152.782 77.0083C152.782 77.0083 151.715 81.2681 152.715 81.8671" stroke="#E9665C" stroke-width="2" stroke-miterlimit="10" stroke-linecap="round" stroke-linejoin="round"/>
<path id="Vector_50" d="M144.778 97.2752C144.778 97.2752 153.55 100.57 162.021 96.9092C162.021 96.9092 159.253 109.223 153.416 109.921C147.58 110.687 144.778 97.2752 144.778 97.2752Z" fill="#FFC3B8"/>
<path id="Vector_51" d="M147.079 84.0303C147.079 84.0303 152.849 88.0571 158.485 84.1634" stroke="#E9665C" stroke-width="2" stroke-miterlimit="10" stroke-linecap="round" stroke-linejoin="round"/>
<g id="Group_22">
<g id="Group_23">
<path id="Vector_52" d="M131.938 77.1411C131.938 77.1411 129.736 78.2726 131.037 81.7004" stroke="#FFC3B8" stroke-miterlimit="10" stroke-linecap="round" stroke-linejoin="round"/>
</g>
</g>
<g id="Group_24">
<g id="Group_25">
<path id="Vector_53" d="M170.792 75.2111C170.792 75.2111 173.493 72.815 176.295 75.6438C179.096 78.4725 175.795 89.255 169.925 86.4928" fill="#FFDDCF"/>
<path id="Vector_54" d="M174.127 76.2759C174.127 76.2759 176.395 77.3075 175.194 80.8019" stroke="#FFC3B8" stroke-miterlimit="10" stroke-linecap="round" stroke-linejoin="round"/>
</g>
</g>
</g>
</g>
</g>
<path id="Vector_55" d="M144.612 80.4357C146.713 82.1662 147.013 85.2612 145.279 87.3578C143.544 89.4544 140.443 89.7539 138.341 88.0234C136.24 86.2929 135.94 83.1979 137.674 81.1013C139.409 79.0047 142.51 78.7052 144.612 80.4357Z" fill="url(#paint2_radial_29_823)"/>
<path id="Vector_56" d="M168.891 80.4357C170.992 82.1662 171.292 85.2612 169.558 87.3578C167.824 89.4544 164.722 89.7539 162.621 88.0234C160.52 86.2929 160.219 83.1979 161.954 81.1013C163.688 79.0047 166.79 78.7052 168.891 80.4357Z" fill="url(#paint3_radial_29_823)"/>
</g>
</g>
<path id="Vector_57" d="M176.428 62.7981C171.192 50.0853 164.622 48.2883 159.953 47.7891C155.017 47.2566 152.315 48.8207 151.415 49.5529C149.48 49.087 144.311 48.7209 139.475 52.0821C131.471 57.7063 126.335 74.1796 129.803 93.881L139.642 95.1123C139.642 95.1123 135.273 89.2551 136.107 80.2697C136.473 76.2429 139.142 74.6455 140.909 72.682C142.677 70.7185 147.313 69.0879 148.046 61.5334L146.579 73.3143L162.421 73.4475C162.421 73.4475 161.454 63.863 160.686 61.0342C160.686 61.0342 164.955 70.652 167.557 77.1082C172.926 90.553 162.888 96.9094 162.888 96.9094L176.161 93.7479C180.064 88.5563 181.664 75.5108 176.428 62.7981Z" fill="#3F362E"/>
</g>
<g id="Group_26">
<path id="Vector_58" d="M175.461 156.845L178.43 158.609C178.997 158.942 179.263 159.574 179.097 160.206C178.896 160.939 178.196 161.371 177.462 161.238L175.161 160.839L175.461 156.845Z" fill="#FFD6CA"/>
<g id="Group_27">
<path id="Vector_59" d="M182.965 160.04L182.765 159.375C182.432 158.276 181.931 157.245 181.331 156.28C180.531 154.982 179.43 153.185 179.297 152.785C179.063 152.12 178.396 151.554 177.696 151.388C177.029 151.221 171.959 149.091 171.593 148.825C171.226 148.592 169.758 148.892 169.758 148.892C169.758 148.892 169.158 148.659 168.724 148.659C168.291 148.659 167.824 148.892 165.856 149.524C163.922 150.123 158.852 150.556 158.852 150.556L154.417 152.552L146.746 157.045C146.446 158.842 147.213 162.17 155.751 163.734L160.687 160.839L164.722 159.608L166.29 161.871L166.79 163.568C166.957 164.1 167.457 164.433 168.024 164.333C168.624 164.233 169.024 163.701 168.958 163.102L168.658 160.706L167.257 156.945L168.791 158.709L169.825 162.969L170.192 166.23C170.258 166.929 170.859 167.495 171.559 167.528C172.293 167.561 172.927 167.062 173.06 166.363L173.193 165.698V166.097C173.193 166.696 173.66 167.162 174.261 167.229C174.828 167.262 175.295 166.896 175.428 166.363L176.062 163.401V157.178C176.062 156.646 175.928 156.113 175.661 155.647L174.961 154.483L176.795 155.082L179.063 158.443L180.898 161.138C181.164 161.538 181.631 161.737 182.098 161.638C182.732 161.471 183.199 160.739 182.965 160.04Z" fill="#FCDFD4"/>
</g>
<path id="Vector_60" d="M158.686 157.278C158.686 157.278 160.687 157.145 162.054 156.247" stroke="#EEA892" stroke-miterlimit="10" stroke-linecap="round" stroke-linejoin="round"/>
<path id="Vector_61" d="M161.387 155.814L163.088 156.979L164.555 158.676L164.722 159.408" stroke="#EEA892" stroke-miterlimit="10" stroke-linecap="round" stroke-linejoin="round"/>
<path id="Vector_62" d="M164.055 153.085L166.122 155.015L167.223 156.912" stroke="#EEA892" stroke-miterlimit="10" stroke-linecap="round" stroke-linejoin="round"/>
<path id="Vector_63" d="M168.457 152.286L171.025 155.281L172.226 157.578L172.826 161.771L173.16 165.664" stroke="#EEA892" stroke-miterlimit="10" stroke-linecap="round" stroke-linejoin="round"/>
<path id="Vector_64" d="M172.593 151.854L174.927 154.416" stroke="#EEA892" stroke-miterlimit="10" stroke-linecap="round" stroke-linejoin="round"/>
<path id="Vector_65" d="M159.553 158.875C159.553 158.875 161.254 158.576 161.987 158.809" stroke="#EEA892" stroke-miterlimit="10" stroke-linecap="round" stroke-linejoin="round"/>
</g>
<path id="Vector_66" d="M135.24 75.9436C135.24 75.9436 132.438 73.6473 129.737 76.5759C127.035 79.5045 130.804 90.1539 136.541 87.1587" fill="#FFDDCF"/>
<path id="Vector_67" d="M142.977 70.6852C136.573 77.0748 137.574 83.5643 136.573 83.3646C134.906 83.0651 134.839 73.6138 134.839 73.6138C134.839 73.6138 143.177 70.5188 142.977 70.6852Z" fill="#3F362E"/>
<path id="Vector_68" d="M133.205 76.7422C133.205 76.7422 130.771 77.2414 131.004 80.5028C131.238 83.7974 133.305 84.1635 133.305 84.1635" stroke="#E9665C" stroke-width="2" stroke-miterlimit="10" stroke-linecap="round" stroke-linejoin="round"/>
<path id="Vector_69" d="M142.476 62.7314C142.476 62.7314 140.876 71.251 135.039 73.9133" stroke="#2D2621" stroke-miterlimit="10"/>
<path id="Vector_70" d="M167.323 63.8296C167.323 63.8296 176.228 78.173 169.258 95.3451" stroke="#2D2621" stroke-miterlimit="10"/>
<path id="Vector_71" d="M174.527 72.8486C174.527 72.8486 177.696 81.9672 174.294 94.0143" stroke="#2D2621" stroke-miterlimit="10"/>
<path id="Vector_72" d="M150.748 60.4351L150.015 72.9481" stroke="#2D2621" stroke-miterlimit="10"/>
<path id="Vector_73" d="M157.818 60.8013L159.286 72.8484" stroke="#2D2621" stroke-miterlimit="10"/>
<path id="Vector_74" d="M154.283 63.4639L154.517 72.8486" stroke="#2D2621" stroke-miterlimit="10"/>
<path id="Vector_75" d="M137.107 65.8931C137.107 65.8931 135.639 70.885 131.737 73.3144" stroke="#2D2621" stroke-miterlimit="10"/>
<path id="Vector_76" d="M165.489 104.63L165.256 100.637C165.256 100.637 162.021 101.003 161.054 103.931C161.054 103.931 158.952 103.332 157.819 106.028C157.819 106.028 155.417 105.429 153.516 107.759L153.283 108.224L153.049 107.759C151.182 105.429 148.747 106.028 148.747 106.028C147.613 103.332 145.512 103.931 145.512 103.931C144.545 101.003 141.31 100.637 141.31 100.637L141.076 104.63L142.644 106.194C145.445 109.023 149.281 110.621 153.283 110.621C157.285 110.621 161.12 109.023 163.922 106.194L165.489 104.63Z" fill="white"/>
<path id="Vector_77" d="M138.408 107.193C138.408 107.193 142.41 113.949 153.25 113.949C164.089 113.949 168.291 106.727 168.291 106.727" stroke="#262626" stroke-miterlimit="10"/>
<path id="Vector_78" d="M144.411 155.914L128.136 157.644L126.568 134.083" stroke="#262626" stroke-miterlimit="10"/>
<path id="Vector_79" d="M127.169 181.606L152.949 169.425" stroke="#262626" stroke-miterlimit="10"/>
<path id="Vector_80" d="M145.545 155.714L149.147 153.451C149.147 153.451 150.014 155.148 149.781 156.48C149.781 156.48 152.615 158.044 153.216 161.072C153.216 161.072 155.951 162.303 156.017 164.899C156.017 164.899 158.685 165.199 158.619 167.229C158.619 167.262 154.483 168.66 154.483 168.66C154.483 168.66 151.782 167.528 148.513 162.57C145.978 158.776 145.545 155.714 145.545 155.714Z" fill="white"/>
<path id="Vector_81" d="M176.262 174.95L185.433 120.638L248 115.712L237.395 165.798L176.262 174.95Z" fill="#D0D1D3"/>
<path id="Vector_82" d="M175.928 176.314L236.327 167.162C236.86 167.096 237.261 166.696 237.361 166.164L237.427 165.798L176.295 174.95L175.928 176.314Z" fill="#C6C6C6"/>
<path id="Vector_83" d="M208.212 171.289C208.212 171.289 208.979 167.661 209.346 165.032C209.713 162.503 212.848 162.969 212.715 165.298C212.581 167.661 212.481 171.522 212.481 171.522L214.649 165.465C214.649 165.465 215.683 160.573 215.95 158.942C216.25 157.078 218.918 156.812 218.985 159.142C219.052 160.673 218.951 165.931 218.951 165.931L218.051 170.49L220.619 163.601C220.619 163.601 221.453 157.744 221.52 155.814C221.586 154.116 224.555 154.116 224.721 155.847C224.855 157.178 224.721 163.601 224.721 163.601L223.387 170.257L225.288 165.132C225.288 165.132 225.922 161.571 226.089 160.44C226.289 158.942 228.59 158.776 228.757 161.072C228.823 162.037 228.623 165.265 228.623 165.265C228.623 165.265 228.256 166.996 227.99 168.061C226.989 171.987 226.022 175.615 222.92 175.016C222.92 175.016 221.186 176.88 218.551 175.382C218.551 175.382 216.484 177.612 213.582 176.014C213.582 176.014 212.081 178.211 209.013 176.647C205.945 175.082 201.509 172.354 201.509 172.354L208.212 171.289Z" fill="#FCDFD4"/>
</g>
<path id="Vector_84" d="M136.507 87.225C136.507 87.9239 135.94 88.4563 135.273 88.4563C134.573 88.4563 134.039 87.8906 134.039 87.225C134.039 86.5261 134.606 85.9937 135.273 85.9937C135.973 85.9937 136.507 86.5594 136.507 87.225Z" fill="white"/>
</g>
</g>
<defs>
<radialGradient id="paint0_radial_29_823" cx="0" cy="0" r="1" gradientUnits="userSpaceOnUse" gradientTransform="translate(61.7553 35.1349) rotate(-146.035) scale(4.47588 4.47226)">
<stop stop-color="#FFBDB2"/>
<stop offset="0.4037" stop-color="#FFC1B5"/>
<stop offset="0.7643" stop-color="#FFCBBF"/>
<stop offset="1" stop-color="#FFD7C9"/>
</radialGradient>
<radialGradient id="paint1_radial_29_823" cx="0" cy="0" r="1" gradientUnits="userSpaceOnUse" gradientTransform="translate(83.7264 33.3006) rotate(-146.035) scale(4.47588 4.47226)">
<stop stop-color="#FFBDB2"/>
<stop offset="0.4037" stop-color="#FFC1B5"/>
<stop offset="0.7643" stop-color="#FFCBBF"/>
<stop offset="1" stop-color="#FFD7C9"/>
</radialGradient>
<radialGradient id="paint2_radial_29_823" cx="0" cy="0" r="1" gradientUnits="userSpaceOnUse" gradientTransform="translate(141.465 84.2344) rotate(-50.3031) scale(4.92385 4.92581)">
<stop stop-color="#FFBDB2"/>
<stop offset="0.4037" stop-color="#FFC1B5"/>
<stop offset="0.7643" stop-color="#FFCBBF"/>
<stop offset="1" stop-color="#FFD7C9"/>
</radialGradient>
<radialGradient id="paint3_radial_29_823" cx="0" cy="0" r="1" gradientUnits="userSpaceOnUse" gradientTransform="translate(165.756 84.2344) rotate(-50.3031) scale(4.92384 4.92581)">
<stop stop-color="#FFBDB2"/>
<stop offset="0.4037" stop-color="#FFC1B5"/>
<stop offset="0.7643" stop-color="#FFCBBF"/>
<stop offset="1" stop-color="#FFD7C9"/>
</radialGradient>
<clipPath id="clip0_29_823">
<rect width="248" height="185" fill="white"/>
</clipPath>
</defs>
</svg>