<svg width="282" height="115" viewBox="0 0 282 115" fill="none" xmlns="http://www.w3.org/2000/svg">
<rect width="170" height="50" transform="translate(0.318604 12.3032) rotate(-4)" fill="#0E29FF"/>
<path d="M38.01 38.384L34.2691 38.6456L34.0045 34.8609L37.7453 34.5993L38.01 38.384ZM29.8327 24.5506L40.5 23.8047L40.3713 21.9635L44.0829 21.7039L44.7052 30.6031L26.6438 31.8661L26.0216 22.9669L29.704 22.7094L29.8327 24.5506ZM40.8004 28.1008L40.6891 26.5081L30.0218 27.254L30.1331 28.8468L40.8004 28.1008ZM48.1263 34.7985L23.8691 36.4947L23.6586 33.4845L47.9158 31.7883L48.1263 34.7985ZM45.7465 43.3937L30.9291 44.4298L31.1028 46.914L27.435 47.1704L27.0815 42.1144L41.8842 41.0793L41.7851 39.6619L26.9677 40.698L26.7767 37.9654L45.2764 36.6718L45.7465 43.3937ZM46.7493 47.6554L27.5628 48.997L27.3676 46.206L46.5541 44.8643L46.7493 47.6554ZM67.9714 26.9057L61.5856 27.3522L61.3802 24.4151L67.766 23.9685L67.9714 26.9057ZM68.1384 32.4447L61.7819 32.8892L61.5724 29.8935L67.9289 29.449L68.1384 32.4447ZM71.651 34.7981L67.9393 35.0577L66.8685 19.7435L70.5801 19.484L71.651 34.7981ZM62.2137 21.8458C62.3813 24.2423 62.072 26.398 61.2857 28.313C60.4994 30.228 59.2452 31.8918 57.5231 33.3044C55.801 34.7171 53.6167 35.8879 50.9699 36.817L49.3033 33.982C51.4835 33.2422 53.2622 32.3591 54.6393 31.3328C56.0164 30.3065 57.004 29.1704 57.6021 27.9245C58.21 26.6779 58.4646 25.3483 58.3658 23.9357L58.2391 22.1237L62.2137 21.8458ZM61.036 24.9531L50.1495 25.7144L49.939 22.7041L60.8255 21.9429L61.036 24.9531ZM62.8035 35.7399C64.6058 35.6138 66.2045 35.7272 67.5997 36.08C69.0039 36.4223 70.1094 36.9715 70.916 37.7276C71.722 38.474 72.1635 39.3976 72.2405 40.4984C72.3168 41.5895 72.0085 42.5705 71.3156 43.4412C70.6234 44.3217 69.6058 45.0292 68.2628 45.5636C66.9296 46.0974 65.3619 46.4273 63.5597 46.5533C61.7574 46.6793 60.1542 46.5712 58.7499 46.2289C57.3554 45.8858 56.2493 45.3269 55.4315 44.5519C54.6242 43.7861 54.1823 42.8576 54.106 41.7665C54.0291 40.6657 54.3377 39.6896 55.032 38.8384C55.7353 37.9767 56.7536 37.2789 58.0868 36.7452C59.429 36.201 61.0013 35.8659 62.8035 35.7399ZM63.0069 38.6478C61.8949 38.706 60.9415 38.8608 60.1465 39.1121C59.3509 39.3538 58.7569 39.6792 58.3646 40.0884C57.9716 40.4879 57.7942 40.9604 57.8323 41.506C57.8698 42.0418 58.1109 42.4801 58.5557 42.821C59.0005 43.1619 59.6287 43.397 60.4405 43.5262C61.2523 43.6554 62.2232 43.6806 63.3533 43.6015C64.4736 43.5232 65.4218 43.3639 66.1979 43.1236C66.9838 42.8827 67.5733 42.5624 67.9663 42.163C68.369 41.7628 68.5517 41.2948 68.5142 40.759C68.4761 40.2135 68.2297 39.7706 67.7752 39.4304C67.3297 39.0797 66.7011 38.8398 65.8894 38.7106C65.0866 38.5709 64.1258 38.55 63.0069 38.6478ZM97.6454 44.2873L93.8607 44.5519L91.9989 17.9275L95.7836 17.6628L97.6454 44.2873ZM88.0158 21.0254C88.2154 23.8797 88.0118 26.498 87.405 28.8801C86.8073 31.2518 85.6657 33.4755 83.9802 35.5513C82.2941 37.6173 79.9723 39.483 77.0148 41.1484L74.8483 38.3044C77.3259 36.9172 79.2864 35.4145 80.7298 33.7962C82.1731 32.1779 83.1798 30.4041 83.7497 28.4749C84.3197 26.5457 84.5198 24.3682 84.3502 21.9425L84.3042 21.2849L88.0158 21.0254ZM86.2193 24.1025L75.3328 24.8638L75.1274 21.9266L86.0139 21.1654L86.2193 24.1025ZM114.773 29.2424L110.331 29.553L110.122 26.572L114.565 26.2614L114.773 29.2424ZM123.613 42.4715L120.033 42.7218L118.171 16.0974L121.751 15.847L123.613 42.4715ZM117.989 41.6313L114.467 41.8775L112.72 16.8897L116.241 16.6434L117.989 41.6313ZM104.846 18.9527C106.025 18.8703 107.085 19.1878 108.026 19.9051C108.966 20.6127 109.726 21.6756 110.305 23.0938C110.893 24.5113 111.257 26.2039 111.394 28.1718C111.531 30.1299 111.407 31.8566 111.022 33.3519C110.646 34.8368 110.043 36.0048 109.211 36.8559C108.379 37.6973 107.374 38.164 106.196 38.2562C105.027 38.3282 103.976 38.0052 103.045 37.2871C102.113 36.5594 101.357 35.4864 100.779 34.0682C100.209 32.6397 99.8555 30.9463 99.7186 28.9882C99.5803 27.0106 99.6945 25.2846 100.061 23.8101C100.437 22.3252 101.037 21.1673 101.86 20.3363C102.692 19.495 103.687 19.0338 104.846 18.9527ZM105.094 22.489C104.586 22.5147 104.173 22.7687 103.855 23.2511C103.536 23.7335 103.316 24.4342 103.194 25.3531C103.082 26.2714 103.073 27.4027 103.167 28.7471C103.26 30.0817 103.427 31.2007 103.666 32.1042C103.915 33.007 104.231 33.6702 104.613 34.0938C105.005 34.5167 105.449 34.7108 105.946 34.6761C106.462 34.64 106.885 34.3852 107.214 33.9119C107.543 33.4386 107.773 32.7372 107.904 31.8079C108.035 30.8785 108.053 29.7465 107.96 28.4119C107.866 27.0675 107.69 25.9492 107.432 25.0568C107.174 24.1644 106.848 23.5019 106.456 23.0692C106.063 22.6366 105.609 22.4432 105.094 22.489ZM146.67 29.0677L127.878 30.3818L127.671 27.4154L146.463 26.1013L146.67 29.0677ZM149.94 37.6056L125.624 39.3059L125.41 36.2518L149.726 34.5515L149.94 37.6056ZM139.42 36.256L135.752 36.5125L135.174 28.2563L138.842 27.9998L139.42 36.256ZM145.779 19.0566L130.903 20.0969L131.491 28.4992L127.765 28.7598L126.971 17.4057L145.573 16.1049L145.779 19.0566Z" fill="white"/>
<rect width="200" height="50" transform="translate(82.4281 51.019) rotate(4)" fill="#0ECEFF"/>
<path d="M122.011 92.1214L103.438 90.8226L103.649 87.8124L122.221 89.1112L122.011 92.1214ZM107.302 89.1105L103.576 88.8499L103.98 83.0779L107.706 83.3385L107.302 89.1105ZM125.428 82.9477L101.171 81.2515L101.38 78.2559L125.637 79.9521L125.428 82.9477ZM115.222 80.4279L111.525 80.1694L111.872 75.2157L115.569 75.4742L115.222 80.4279ZM115.576 66.9726C115.457 68.6676 114.925 70.187 113.979 71.5305C113.034 72.8643 111.73 73.9527 110.065 74.7957C108.411 75.6296 106.472 76.1401 104.246 76.3271L103.004 73.3034C104.912 73.1725 106.564 72.7888 107.959 72.1521C109.355 71.5155 110.423 70.7287 111.164 69.7918C111.916 68.8458 112.329 67.8322 112.405 66.7508L112.461 65.9471L115.632 66.1689L115.576 66.9726ZM116.204 67.0165C116.124 68.1563 116.381 69.2462 116.974 70.2862C117.567 71.3262 118.511 72.2439 119.806 73.0393C121.102 73.8347 122.705 74.4265 124.616 74.8147L122.98 77.6371C120.784 77.1213 118.919 76.3448 117.386 75.3076C115.853 74.2704 114.712 73.0257 113.962 71.5733C113.212 70.1112 112.898 68.518 113.018 66.7937L113.075 65.99L116.26 66.2128L116.204 67.0165ZM148.777 82.7302L145.08 82.4717L146.126 67.5083L149.823 67.7668L148.777 82.7302ZM131.983 79.089L128.242 78.8274L129.008 67.8678L132.749 68.1294L131.983 79.089ZM130.688 77.0307C133.153 77.2031 135.375 77.2752 137.354 77.2472C139.333 77.2192 141.283 77.0618 143.202 76.7751L143.428 79.8452C141.392 80.1238 139.339 80.2837 137.271 80.3251C135.202 80.3665 132.936 80.301 130.471 80.1286L128.162 79.9672L128.379 76.8693L130.688 77.0307ZM147.983 94.0844L130.228 92.8428L130.948 82.5555L148.702 83.797L147.983 94.0844ZM134.087 90.1611L144.535 90.8917L144.845 86.4641L134.396 85.7335L134.087 90.1611ZM173.266 96.2341L169.481 95.9695L171.348 69.272L175.133 69.5366L173.266 96.2341ZM160.549 70.4111C161.884 70.5044 163.055 70.9779 164.062 71.8315C165.079 72.6858 165.835 73.8497 166.329 75.3233C166.833 76.7976 167.018 78.4846 166.885 80.3842C166.752 82.2936 166.333 83.9432 165.629 85.333C164.935 86.7235 164.024 87.771 162.898 88.4754C161.783 89.1708 160.557 89.4718 159.223 89.3784C157.869 89.2838 156.683 88.8141 155.665 87.9696C154.658 87.116 153.902 85.9521 153.398 84.4778C152.894 83.0035 152.709 81.3116 152.843 79.4022C152.975 77.5026 153.394 75.8578 154.098 74.468C154.802 73.0782 155.712 72.0308 156.829 71.3257C157.955 70.6213 159.195 70.3164 160.549 70.4111ZM160.313 73.7866C159.632 73.7292 159.011 73.9208 158.452 74.3613C157.903 74.7928 157.455 75.4615 157.108 76.3672C156.771 77.2638 156.557 78.36 156.467 79.6557C156.376 80.9513 156.435 82.0666 156.644 83.0014C156.862 83.9369 157.213 84.6613 157.696 85.1748C158.189 85.6792 158.777 85.9552 159.459 86.0029C160.131 86.0499 160.742 85.8576 161.291 85.4261C161.84 84.9849 162.288 84.3163 162.635 83.4203C162.982 82.5243 163.2 81.4285 163.291 80.1328C163.381 78.8372 163.317 77.7216 163.099 76.7861C162.881 75.8409 162.53 75.1164 162.047 74.6127C161.574 74.0999 160.996 73.8246 160.313 73.7866ZM188.471 75.1536L184.832 74.8991L185.04 71.9328L188.678 72.1872L188.471 75.1536ZM193.502 85.3144L190.097 85.0763L190.551 78.5883L193.956 78.8264L193.502 85.3144ZM191.023 74.5684C190.941 75.7375 190.792 76.8871 190.576 78.0174C190.36 79.1476 189.982 80.3595 189.441 81.6531L186.057 80.9025C186.59 79.5791 186.951 78.4148 187.139 77.4099C187.337 76.3958 187.481 75.3095 187.572 74.1509L187.589 73.9025L187.714 72.1197L191.177 72.3619L191.053 74.1447L191.023 74.5684ZM204.871 88.2093L201.086 87.9446L202.241 71.4322L206.025 71.6968L204.871 88.2093ZM208.305 81.9296L203.556 81.5975L203.769 78.5581L208.518 78.8902L208.305 81.9296ZM183.447 82.952C186.545 83.1686 189.466 83.3288 192.209 83.4326C194.963 83.537 197.547 83.5317 199.964 83.4168L200.014 86.0634C197.51 86.3093 194.904 86.411 192.195 86.3684C189.487 86.3161 186.603 86.183 183.544 85.9691L183.447 82.952ZM204.168 98.2628L200.383 97.9982L200.805 91.9631L186.002 90.928L186.21 87.9616L204.797 89.2614L204.168 98.2628ZM196.362 75.7054L192.241 75.4172L192.449 72.4508L196.569 72.739L196.362 75.7054ZM199.571 74.9606C199.47 76.2653 199.333 77.455 199.16 78.5295C198.997 79.6047 198.709 80.7789 198.297 82.0521L194.818 81.4123C195.218 80.1579 195.493 79.0318 195.641 78.0338C195.8 77.0268 195.926 75.9147 196.021 74.6977L196.039 74.4493L196.16 72.7104L199.711 72.9587L199.59 74.6976L199.571 74.9606ZM217.993 80.9477C217.86 82.8474 217.449 84.664 216.76 86.3975C216.081 88.1317 215.143 89.6471 213.946 90.9437C212.759 92.241 211.362 93.1761 209.756 93.749L207.912 90.7127C209.348 90.1963 210.583 89.4114 211.616 88.3579C212.659 87.305 213.466 86.1182 214.038 84.7974C214.62 83.4774 214.959 82.1257 215.056 80.7423L215.162 79.2226L218.099 79.428L217.993 80.9477ZM218.753 81.0009C218.661 82.3063 218.795 83.6176 219.153 84.9349C219.522 86.2431 220.136 87.4705 220.995 88.6173C221.855 89.764 222.934 90.7107 224.233 91.4575L221.974 94.1482C220.522 93.3517 219.312 92.2489 218.344 90.8401C217.385 89.4319 216.697 87.8566 216.281 86.1143C215.874 84.3727 215.733 82.6008 215.859 80.7985L215.966 79.2788L218.859 79.4811L218.753 81.0009ZM224.261 80.3435L209.619 79.3196L209.827 76.3532L224.469 77.3771L224.261 80.3435ZM218.954 78.548L215.213 78.2864L215.584 72.982L219.325 73.2435L218.954 78.548ZM228.845 100.047L225.104 99.7856L226.966 73.1612L230.707 73.4227L228.845 100.047ZM233.71 87.1716L228.947 86.8385L229.165 83.7113L233.929 84.0445L233.71 87.1716ZM255.888 85.4332L237.286 84.1324L237.489 81.2244L256.091 82.5252L255.888 85.4332ZM258.173 91.3932L233.858 89.6929L234.062 86.7703L258.378 88.4707L258.173 91.3932ZM241.114 82.9463L237.387 82.6857L237.932 74.8971L241.658 75.1577L241.114 82.9463ZM254.941 101.285L235.945 99.9563L236.155 96.946L255.152 98.2744L254.941 101.285ZM239.836 98.0698L236.095 97.8082L236.496 92.0654L240.237 92.3269L239.836 98.0698Z" fill="white"/>
</svg>
